<svg width="56mm" height="16mm" version="1.1" viewBox="0 0 56 16" xmlns="http://www.w3.org/2000/svg">
 <g transform="translate(-84 -88)">
  <g fill="#5dbcae">
   <path d="m105 96v-7.8c0-0.14-0.11-0.25-0.25-0.25h-1.4c-0.14 0-0.25 0.11-0.25 0.25v7.8c0 0.14 0.11 0.25 0.25 0.25h1.4c0.14 0 0.25-0.11 0.25-0.25"/>
   <path d="m103 101v1.2c0 0.14 0.11 0.25 0.25 0.25h1.4c0.14 0 0.25-0.11 0.25-0.25v-1.2c0-0.14-0.11-0.25-0.25-0.25h-1.4c-0.14 0-0.25 0.11-0.25 0.25"/>
   <path d="m92 88h-1.5c-0.12 0-0.22 0.097-0.22 0.22v14c0 0.12 0.097 0.22 0.22 0.22h1.5c0.12 0 0.22-0.097 0.22-0.22v-14c0-0.12-0.097-0.22-0.22-0.22"/>
   <path d="m110 98h-17c-0.14 0-0.25 0.11-0.25 0.25v1.4c0 0.14 0.11 0.25 0.25 0.25h17c0.14 0 0.25-0.11 0.25-0.25v-1.4c0-0.14-0.11-0.25-0.25-0.25"/>
   <path d="m100 94c-2.4-0.11-6.1-0.91-7.4-5.7-0.029-0.11-0.13-0.19-0.24-0.19h-1.6c-0.15 0-0.27 0.13-0.25 0.28l0.077 0.58c0.0014 0.011 0.0039 0.023 0.0067 0.034 0.86 3.3 3.9 5.7 7.4 5.7 0.71 0 1.4-0.098 2.1-0.28 0.28-0.078 0.22-0.48-0.065-0.49-6e-3 -3.5e-4 -0.012-3.5e-4 -0.018-7.1e-4"/>
   <path d="m104 88h-1.6c-0.12 0-0.21 0.08-0.24 0.19-0.67 2.6-2.2 3.8-3.8 4.3 0.1 0.0039 0.2 0.0063 0.3 0.0056 2-0.014 3.9-1.1 5-2.4 0.35-0.39 0.53-1.3 0.6-1.7 0.024-0.15-0.095-0.29-0.25-0.29"/>
   <path d="m84 98v1.4c0 0.14 0.11 0.25 0.25 0.25h4.3c0.14 0 0.25-0.11 0.25-0.25v-1.4c0-0.14-0.11-0.25-0.25-0.25h-4.3c-0.14 0-0.25 0.11-0.25 0.25"/>
   <path d="m92 88h-1.4c-0.12 0-0.21 0.079-0.24 0.19-0.78 3-3.1 5.2-5.7 5.8-0.11 0.029-0.19 0.13-0.19 0.24v5.1c0 0.14 0.11 0.25 0.25 0.25h1.4c0.14 0 0.25-0.11 0.25-0.25v-3.8c0-0.1 0.06-0.19 0.15-0.23 2.9-1.3 5.1-3.9 5.8-7.1 0.032-0.15-0.089-0.3-0.25-0.3"/>
   <path d="m105 88h-1.4c-0.16 0-0.28 0.14-0.25 0.3 0.65 3.1 2.8 5.7 5.6 7 0.09 0.041 0.15 0.13 0.15 0.23v3.8c0 0.14 0.11 0.25 0.25 0.25h1.4c0.14 0 0.25-0.11 0.25-0.25v-5.2c0-0.11-0.074-0.21-0.18-0.24-2.9-0.86-4.9-3.1-5.6-5.8-0.028-0.11-0.13-0.19-0.24-0.19"/>
   <g transform="matrix(1.6 0 0 1.7 -64 -62)" stroke-width=".61">
    <g transform="translate(.2)">
     <path d="m114 91 0.092-0.14c0.11-0.16 0.24-0.18 0.43-0.076 0.18 0.1 0.47 0.27 0.87 0.27 0.34 0 0.54-0.15 0.54-0.4 0-0.63-1.9-0.4-1.9-1.7 0-0.76 0.67-1.2 1.5-1.2 0.52 0 0.88 0.17 1.1 0.28 0.18 0.091 0.2 0.25 0.11 0.43l-0.076 0.14c-0.091 0.18-0.24 0.21-0.43 0.12-0.17-0.076-0.42-0.19-0.74-0.19-0.34 0-0.53 0.14-0.53 0.38 0 0.64 1.9 0.39 1.9 1.7 0 0.69-0.58 1.2-1.5 1.2-0.63 0-1.1-0.24-1.3-0.4-0.18-0.099-0.19-0.27-0.076-0.43"/>
     <path d="m118 91c0.36 0 0.59-0.36 0.59-0.68v-0.096h-0.11c-0.32 0-0.87 0.05-0.87 0.43 0 0.17 0.13 0.34 0.39 0.34zm0.48-1.2h0.11v-0.061c0-0.34-0.22-0.45-0.48-0.45-0.22 0-0.41 0.081-0.54 0.15-0.13 0.055-0.22 0.035-0.28-0.086l-0.05-0.096c-0.06-0.12-0.04-0.22 0.081-0.28 0.17-0.086 0.46-0.21 0.84-0.21 0.67 0 1.1 0.37 1.1 1v1.4c0 0.14-0.071 0.21-0.21 0.21h-0.17c-0.14 0-0.21-0.071-0.21-0.21v-0.1c0-0.071 0.01-0.11 0.01-0.11h-0.01s-0.24 0.48-0.81 0.48c-0.47 0-0.85-0.3-0.85-0.77 0-0.75 0.93-0.88 1.5-0.88"/>
     <path d="m119 90h-0.13c-0.14 0-0.21-0.07-0.21-0.21v-0.086c0-0.14 0.071-0.21 0.21-0.21h0.13v-0.12c0-0.82 0.72-0.94 0.98-0.94h0.076c0.14 0 0.21 0.071 0.21 0.21v0.13c0 0.14-0.076 0.2-0.22 0.21-0.16 0.01-0.41 0.046-0.41 0.42v0.096h0.34c0.14 0 0.21 0.076 0.21 0.21v0.086c0 0.14-0.071 0.21-0.21 0.21h-0.34v1.8c0 0.14-0.076 0.21-0.21 0.21h-0.22c-0.14 0-0.21-0.071-0.21-0.21v-1.8"/>
     <path d="m123 90c-0.01-0.36-0.23-0.57-0.52-0.57-0.33 0-0.56 0.23-0.62 0.57zm-0.51-1.1c0.73 0 1.1 0.52 1.1 1.2 0 0.11-0.096 0.22-0.22 0.22h-1.6c0.041 0.46 0.38 0.71 0.77 0.71 0.24 0 0.43-0.091 0.56-0.17 0.13-0.06 0.22-0.045 0.28 0.071l0.061 0.1c0.061 0.12 0.04 0.22-0.071 0.28-0.17 0.11-0.47 0.26-0.87 0.26-0.85 0-1.4-0.62-1.4-1.3 0-0.79 0.54-1.3 1.3-1.3"/>
    </g>
    <g transform="translate(-10 4.2)">
     <path d="m128 90c-0.02-0.54-0.34-0.8-0.72-0.8-0.42 0-0.79 0.28-0.87 0.8zm-0.71-1.1c0.68 0 1.1 0.49 1.1 1.2 0 0.071-0.056 0.13-0.13 0.13h-1.8c0.015 0.65 0.46 1 0.98 1 0.32 0 0.55-0.14 0.67-0.23 0.071-0.046 0.13-0.036 0.17 0.03l0.04 0.061c0.036 0.061 0.025 0.12-0.035 0.17-0.14 0.1-0.44 0.28-0.85 0.28-0.76 0-1.3-0.55-1.3-1.3 0-0.83 0.57-1.3 1.3-1.3"/>
     <path d="m131 90c-0.02-0.54-0.34-0.8-0.72-0.8-0.42 0-0.79 0.28-0.87 0.8zm-0.71-1.1c0.68 0 1.1 0.49 1.1 1.2 0 0.071-0.055 0.13-0.13 0.13h-1.8c0.015 0.65 0.46 1 0.98 1 0.32 0 0.55-0.14 0.67-0.23 0.071-0.046 0.13-0.036 0.17 0.03l0.041 0.061c0.035 0.061 0.025 0.12-0.036 0.17-0.14 0.1-0.44 0.28-0.85 0.28-0.76 0-1.3-0.55-1.3-1.3 0-0.83 0.57-1.3 1.3-1.3"/>
     <path d="m133 92c0.45 0 0.82-0.37 0.82-1 0-0.62-0.33-1-0.8-1-0.42 0-0.82 0.3-0.82 1 0 0.51 0.28 1 0.8 1zm-1.1-2.2c0-0.081 0.04-0.13 0.12-0.13h0.081c0.081 0 0.12 0.046 0.12 0.12v0.18c0 0.1-0.015 0.17-0.015 0.17h0.01s0.22-0.53 0.89-0.53c0.68 0 1.1 0.55 1.1 1.3 0 0.8-0.48 1.3-1.1 1.3-0.62 0-0.84-0.52-0.84-0.52h-0.01s0.02 0.091 0.02 0.22v1.1c0 0.081-0.046 0.13-0.13 0.13h-0.096c-0.081 0-0.12-0.046-0.12-0.13v-3.3"/>
     <path d="m135 89c0-0.081 0.045-0.13 0.13-0.13h0.096c0.081 0 0.12 0.046 0.12 0.13v2.3c0 0.081-0.041 0.13-0.12 0.13h-0.096c-0.081 0-0.13-0.045-0.13-0.13zm-0.01-0.83v-0.18c0-0.081 0.04-0.13 0.12-0.13h0.13c0.081 0 0.12 0.046 0.12 0.13v0.18c0 0.081-0.041 0.12-0.12 0.12h-0.13c-0.081 0-0.12-0.041-0.12-0.12"/>
     <path d="m136 89c0-0.081 0.046-0.13 0.13-0.13h0.091c0.076 0 0.12 0.046 0.12 0.13v0.29c0 0.1-0.02 0.18-0.02 0.18h0.01c0.096-0.23 0.43-0.66 1-0.66 0.63 0 0.85 0.36 0.85 0.98v1.5c0 0.081-0.046 0.13-0.13 0.13h-0.096c-0.081 0-0.12-0.045-0.12-0.13v-1.4c0-0.4-0.066-0.75-0.56-0.75-0.54 0-0.96 0.44-0.96 1v1.1c0 0.081-0.04 0.13-0.12 0.13h-0.096c-0.081 0-0.13-0.045-0.13-0.13v-2.3"/>
     <path d="m140 91c0-0.75-0.36-0.98-0.79-0.98-0.52 0-0.8 0.36-0.8 0.95 0 0.64 0.33 1 0.83 1 0.4 0 0.76-0.25 0.76-0.98zm-1.5 1.9c0.11 0.05 0.31 0.13 0.59 0.13 0.47 0 0.87-0.23 0.87-0.8v-0.26c0-0.096 0.015-0.18 0.015-0.18h-0.01c-0.15 0.29-0.41 0.47-0.81 0.47-0.68 0-1.1-0.54-1.1-1.3 0-0.75 0.41-1.3 1.1-1.3 0.66 0 0.83 0.46 0.83 0.46h0.01s-0.01-0.036-0.01-0.086v-0.21c0-0.066 0.04-0.11 0.12-0.11h0.081c0.081 0 0.13 0.046 0.13 0.13v2.4c0 0.81-0.6 1.1-1.2 1.1-0.26 0-0.52-0.056-0.73-0.15-0.076-0.035-0.096-0.086-0.061-0.16l0.03-0.071c0.035-0.066 0.081-0.086 0.16-0.056"/>
     <path d="m126 92h-0.48l-1.8-1.7h-0.076v1.7h-0.38v-3.6h0.38v1.6h0.1l1.7-1.6h0.48l-1.8 1.7 1.9 1.8"/>
    </g>
   </g>
  </g>
 </g>
</svg>
