<?xml version="1.0" encoding="UTF-8" standalone="no"?>
<!-- Created with Inkscape (http://www.inkscape.org/) -->

<svg
   xmlns:dc="http://purl.org/dc/elements/1.1/"
   xmlns:cc="http://creativecommons.org/ns#"
   xmlns:rdf="http://www.w3.org/1999/02/22-rdf-syntax-ns#"
   xmlns:svg="http://www.w3.org/2000/svg"
   xmlns="http://www.w3.org/2000/svg"
   xmlns:sodipodi="http://sodipodi.sourceforge.net/DTD/sodipodi-0.dtd"
   xmlns:inkscape="http://www.inkscape.org/namespaces/inkscape"
   width="50.875599mm"
   height="5.3181252mm"
   viewBox="0 0 50.875598 5.3181252"
   version="1.1"
   id="svg8548"
   inkscape:version="0.92.2 (5c3e80d, 2017-08-06)"
   sodipodi:docname="p.svg">
  <defs
     id="defs8542" />
  <sodipodi:namedview
     id="base"
     pagecolor="#ffffff"
     bordercolor="#666666"
     borderopacity="1.0"
     inkscape:pageopacity="0.0"
     inkscape:pageshadow="2"
     inkscape:zoom="3.959798"
     inkscape:cx="53.89483"
     inkscape:cy="61.288876"
     inkscape:document-units="mm"
     inkscape:current-layer="layer1"
     showgrid="false"
     fit-margin-top="0"
     fit-margin-left="0"
     fit-margin-right="0"
     fit-margin-bottom="0"
     inkscape:window-width="1920"
     inkscape:window-height="991"
     inkscape:window-x="0"
     inkscape:window-y="27"
     inkscape:window-maximized="1" />
  <metadata
     id="metadata8545">
    <rdf:RDF>
      <cc:Work
         rdf:about="">
        <dc:format>image/svg+xml</dc:format>
        <dc:type
           rdf:resource="http://purl.org/dc/dcmitype/StillImage" />
        <dc:title></dc:title>
      </cc:Work>
    </rdf:RDF>
  </metadata>
  <g
     inkscape:label="Layer 1"
     inkscape:groupmode="layer"
     id="layer1"
     transform="translate(-75.973216,-127.98963)">
    <g
       id="g13106">
      <path
         d="m 77.107146,128.21263 v 1.5539 h 0.75595 v -0.79795 h 1.5119 c 0.68246,0.0105 1.13393,0.40941 1.13393,1.16838 0,0.73072 -0.40149,1.13846 -1.13393,1.13846 v 0.75897 c 1.02545,0 1.88989,-0.75897 1.88989,-1.89743 0,-1.13846 -0.68607,-1.89743 -1.88989,-1.92433 z"
         id="Fill-11"
         inkscape:connector-curvature="0"
         style="fill:#97cc04;fill-rule:evenodd;stroke:none;stroke-width:0.26458332" />
      <polyline
         transform="matrix(0.26458333,0,0,0.26458333,75.973216,128.21263)"
         id="Fill-12"
         points="7.14285714 18.7301587 7.14285714 14.4444444 11.4285714 14.4444444 11.4285714 11.5873016 7.14285714 11.5873016 7.14285714 7.3015873 4.28571429 7.3015873 4.28571429 11.5873016 0 11.5873016 0 14.4444444 4.28571429 14.4444444 4.28571429 18.7301587 7.14285714 18.7301587"
         style="fill:#97cc04;fill-rule:evenodd;stroke:none;stroke-width:1" />
      <g
         id="g126"
         transform="matrix(0.26458333,0,0,0.26458334,28.952983,61.552749)">
        <path
           d="m 200,252.3 c 1.3,-0.2 3.2,-0.4 5.8,-0.4 2.6,0 4.5,0.5 5.8,1.5 1.2,0.9 2,2.5 2,4.3 0,1.8 -0.6,3.4 -1.7,4.4 -1.5,1.3 -3.6,2 -6.1,2 -0.6,0 -1.1,0 -1.5,-0.1 v 6.7 H 200 Z m 4.2,8.5 c 0.4,0.1 0.8,0.1 1.4,0.1 2.3,0 3.7,-1.1 3.7,-3 0,-1.7 -1.2,-2.7 -3.4,-2.7 -0.8,0 -1.4,0.1 -1.7,0.1 z"
           id="path96"
           inkscape:connector-curvature="0"
           style="fill:#414042" />
        <path
           d="m 227.5,263.9 c 0,5 -3.6,7.2 -7.2,7.2 -4,0 -7.1,-2.6 -7.1,-7 0,-4.4 2.9,-7.2 7.3,-7.2 4.2,0 7,2.9 7,7 z m -9.9,0.1 c 0,2.3 1,4.1 2.8,4.1 1.7,0 2.7,-1.6 2.7,-4.1 0,-2 -0.8,-4 -2.7,-4 -2,-0.1 -2.8,2 -2.8,4 z"
           id="path98"
           inkscape:connector-curvature="0"
           style="fill:#414042" />
        <path
           d="m 232.8,253.5 c 0,1.2 -0.9,2.1 -2.3,2.1 -1.3,0 -2.2,-0.9 -2.2,-2.1 0,-1.2 0.9,-2.1 2.3,-2.1 1.3,-0.1 2.1,0.9 2.2,2.1 z m -4.4,17.3 v -13.6 h 4.2 v 13.6 z"
           id="path100"
           inkscape:connector-curvature="0"
           style="fill:#414042" />
        <path
           d="m 234.9,261.6 c 0,-1.7 -0.1,-3.1 -0.1,-4.3 h 3.7 l 0.2,1.9 h 0.1 c 0.6,-0.9 1.9,-2.2 4.2,-2.2 2.8,0 4.9,1.9 4.9,5.9 v 8 h -4.2 v -7.5 c 0,-1.7 -0.6,-2.9 -2.2,-2.9 -1.2,0 -1.9,0.8 -2.2,1.6 -0.1,0.3 -0.1,0.7 -0.1,1.1 V 271 H 235 Z"
           id="path102"
           inkscape:connector-curvature="0"
           style="fill:#414042" />
        <path
           d="m 254.9,253.6 v 3.7 h 3 v 3.1 h -3 v 4.9 c 0,1.6 0.4,2.4 1.7,2.4 0.6,0 0.9,0 1.3,-0.1 v 3.2 c -0.5,0.2 -1.6,0.4 -2.7,0.4 -1.4,0 -2.5,-0.5 -3.2,-1.2 -0.8,-0.8 -1.2,-2.1 -1.2,-4 v -5.5 H 249 v -3.1 h 1.8 v -2.5 z"
           id="path104"
           inkscape:connector-curvature="0"
           style="fill:#414042" />
        <path
           d="m 273.4,270.3 c -0.8,0.4 -2.5,0.8 -4.8,0.8 -6.5,0 -9.9,-4 -9.9,-9.4 0,-6.4 4.6,-9.9 10.3,-9.9 2.2,0 3.9,0.4 4.6,0.8 l -0.9,3.3 c -0.8,-0.4 -2,-0.7 -3.6,-0.7 -3.4,0 -6,2 -6,6.2 0,3.7 2.2,6.1 6,6.1 1.3,0 2.7,-0.2 3.6,-0.6 z"
           id="path106"
           inkscape:connector-curvature="0"
           style="fill:#414042" />
        <path
           d="m 274.9,251.1 h 4.2 v 19.7 h -4.2 z"
           id="path108"
           inkscape:connector-curvature="0"
           style="fill:#414042" />
        <path
           d="m 285.8,253.5 c 0,1.2 -0.9,2.1 -2.3,2.1 -1.3,0 -2.2,-0.9 -2.2,-2.1 0,-1.2 0.9,-2.1 2.3,-2.1 1.4,-0.1 2.2,0.9 2.2,2.1 z m -4.4,17.3 v -13.6 h 4.2 v 13.6 z"
           id="path110"
           inkscape:connector-curvature="0"
           style="fill:#414042" />
        <path
           d="m 298.3,270.4 c -0.8,0.4 -2.2,0.6 -3.8,0.6 -4.4,0 -7.2,-2.7 -7.2,-6.9 0,-4 2.7,-7.2 7.8,-7.2 1.1,0 2.3,0.2 3.2,0.5 l -0.7,3.1 c -0.5,-0.2 -1.3,-0.4 -2.4,-0.4 -2.2,0 -3.7,1.6 -3.7,3.8 0,2.5 1.7,3.8 3.7,3.8 1,0 1.8,-0.2 2.4,-0.4 z"
           id="path112"
           inkscape:connector-curvature="0"
           style="fill:#414042" />
        <path
           d="m 303.9,262.9 v 0 c 0.4,-0.6 0.7,-1.1 1,-1.6 l 2.8,-4.1 h 5.1 l -4.9,5.5 5.6,8.1 h -5.2 l -3.3,-5.6 -1.1,1.3 v 4.2 h -4.2 v -19.6 h 4.2 z"
           id="path114"
           inkscape:connector-curvature="0"
           style="fill:#414042" />
        <path
           d="m 327.7,270.3 c -0.8,0.4 -2.5,0.8 -4.8,0.8 -6.5,0 -9.9,-4 -9.9,-9.4 0,-6.4 4.6,-9.9 10.3,-9.9 2.2,0 3.9,0.4 4.6,0.8 l -0.9,3.3 c -0.8,-0.4 -2,-0.7 -3.6,-0.7 -3.4,0 -6,2 -6,6.2 0,3.7 2.2,6.1 6,6.1 1.3,0 2.7,-0.2 3.6,-0.6 z"
           id="path116"
           inkscape:connector-curvature="0"
           style="fill:#414042" />
        <path
           d="m 340.6,267.5 c 0,1.3 0.1,2.5 0.2,3.3 H 337 l -0.3,-1.4 h -0.1 c -0.9,1.1 -2.3,1.7 -3.9,1.7 -2.8,0 -4.4,-2 -4.4,-4.2 0,-3.5 3.2,-5.2 8,-5.2 v -0.2 c 0,-0.7 -0.4,-1.8 -2.5,-1.8 -1.4,0 -2.9,0.5 -3.8,1 l -0.8,-2.7 c 1,-0.5 2.8,-1.2 5.3,-1.2 4.6,0 6,2.7 6,5.9 z m -4.1,-3.1 c -2.2,0 -4,0.5 -4,2.1 0,1.1 0.7,1.6 1.7,1.6 1,0 1.9,-0.7 2.2,-1.6 0.1,-0.2 0.1,-0.5 0.1,-0.7 z"
           id="path118"
           inkscape:connector-curvature="0"
           style="fill:#414042" />
        <path
           d="m 342.9,261.7 c 0,-2 0,-3.3 -0.1,-4.5 h 3.6 l 0.2,2.5 h 0.1 c 0.7,-2 2.3,-2.8 3.7,-2.8 0.4,0 0.6,0 0.9,0.1 v 4 c -0.3,-0.1 -0.7,-0.1 -1.1,-0.1 -1.6,0 -2.6,0.8 -2.9,2.1 -0.1,0.3 -0.1,0.6 -0.1,0.9 v 6.9 H 343 Z"
           id="path120"
           inkscape:connector-curvature="0"
           style="fill:#414042" />
        <path
           d="m 355.8,265.4 c 0.1,1.7 1.9,2.6 3.9,2.6 1.5,0 2.6,-0.2 3.8,-0.6 l 0.6,2.9 c -1.4,0.6 -3.1,0.9 -4.9,0.9 -4.6,0 -7.3,-2.7 -7.3,-6.9 0,-3.4 2.2,-7.2 6.9,-7.2 4.4,0 6.1,3.4 6.1,6.8 0,0.7 -0.1,1.4 -0.1,1.7 z m 5,-2.9 c 0,-1 -0.4,-2.7 -2.4,-2.7 -1.8,0 -2.5,1.6 -2.6,2.7 z"
           id="path122"
           inkscape:connector-curvature="0"
           style="fill:#414042" />
        <path
           d="m 367.7,251.4 c 1.3,0 2.3,1 2.3,2.3 0,1.3 -1,2.3 -2.4,2.3 -1.3,0 -2.4,-1 -2.4,-2.3 0.1,-1.3 1.1,-2.3 2.5,-2.3 z m -0.1,0.5 c -1,0 -1.8,0.8 -1.8,1.8 0,1 0.8,1.8 1.8,1.8 1,0 1.7,-0.8 1.7,-1.8 0.1,-1 -0.6,-1.8 -1.7,-1.8 z m -0.3,3 h -0.5 v -2.3 c 0.2,0 0.5,-0.1 0.9,-0.1 0.4,0 0.6,0.1 0.8,0.2 0.1,0.1 0.2,0.3 0.2,0.5 0,0.3 -0.2,0.5 -0.5,0.5 v 0 c 0.2,0.1 0.3,0.2 0.4,0.6 0.1,0.3 0.1,0.5 0.2,0.6 h -0.6 c -0.1,-0.1 -0.1,-0.3 -0.2,-0.6 0,-0.2 -0.2,-0.3 -0.5,-0.3 h -0.3 z m 0,-1.3 h 0.3 c 0.3,0 0.5,-0.1 0.5,-0.3 0,-0.2 -0.2,-0.3 -0.5,-0.3 -0.1,0 -0.2,0 -0.3,0 z"
           id="path124"
           inkscape:connector-curvature="0"
           style="fill:#414042" />
      </g>
    </g>
  </g>
</svg>
