<?xml version="1.0" encoding="utf-8"?>
<!-- Generator: Adobe Illustrator 18.1.1, SVG Export Plug-In . SVG Version: 6.00 Build 0)  -->
<svg version="1.1" baseProfile="basic" id="Layer_1"
	 xmlns="http://www.w3.org/2000/svg" xmlns:xlink="http://www.w3.org/1999/xlink" x="0px" y="0px" width="980px" height="160px"
	 viewBox="190 171 980 160" xml:space="preserve">
<g id="Layer_1_1_">
	<path fill="#E66216" d="M256,199.1c0,9.9-8.1,18-18,18s-18-8.1-18-18s8.1-18,18-18S256,189.2,256,199.1z"/>
	<g>
		<g>
			<polygon fill="#FFFFFF" points="236.7,205.8 235.3,204.4 240.6,199.1 235.3,193.8 236.7,192.4 243.4,199.1 			"/>
		</g>
	</g>
	<g>
		<path fill="#414042" d="M306,199.1c0,9.9-8.1,18-18,18s-18-8.1-18-18s8.1-18,18-18S306,189.2,306,199.1z"/>
		<g>
			<g>
				<polygon fill="#FFFFFF" points="286.7,205.8 285.3,204.4 290.6,199.1 285.3,193.8 286.7,192.4 293.4,199.1 				"/>
			</g>
		</g>
	</g>
	<path fill="#E66216" d="M320,199.1c0,9.9,8.1,18,18,18s18-8.1,18-18s-8.1-18-18-18S320,189.2,320,199.1z"/>
	<g>
		<g>
			<polygon fill="#FFFFFF" points="339.3,205.8 340.7,204.4 335.4,199.1 340.7,193.8 339.3,192.4 332.6,199.1 			"/>
		</g>
	</g>
	<g>
		<path fill="#414042" d="M370,199.1c0,9.9,8.1,18,18,18s18-8.1,18-18s-8.1-18-18-18S370,189.2,370,199.1z"/>
		<g>
			<g>
				<polygon fill="#FFFFFF" points="389.3,205.8 390.7,204.4 385.4,199.1 390.7,193.8 389.3,192.4 382.6,199.1 				"/>
			</g>
		</g>
	</g>
	<rect x="420" y="181.1" fill="#E66216" width="36" height="36"/>
	<path fill="#F5F5F5" d="M444,195.1l-6,10l-6-10H444z"/>
	<rect x="470" y="181.1" fill="#414042" width="36" height="36"/>
	<path fill="#F5F5F5" d="M494,195.1l-6,10l-6-10H494z"/>
	<path fill="#095460" d="M535.8,207.2v-6.8h-2.3v-3.3h2.3c0,0,0-1.2,0-2.4c0-1.8,1.6-3.8,4.5-3.8c1.2,0,2.3,0,2.3,0v2.8
		c0,0-1.3,0-2.3,0s-1.1,0.5-1.1,1.3c0,0.6,0-1.2,0,2.1h3.4v3.4h-3.4v6.8L535.8,207.2L535.8,207.2z"/>
	<path fill="#095460" d="M555.5,181.6v35h-35v-35H555.5 M556,181.1h-36v36h36V181.1L556,181.1z"/>
	<path fill="#095460" d="M606,181.1h-36v36h36V181.1L606,181.1z"/>
	<path fill="#FFFFFF" d="M585.8,207.2v-6.8h-2.3v-3.3h2.3c0,0,0-1.2,0-2.4c0-1.8,1.6-3.8,4.5-3.8c1.2,0,2.3,0,2.3,0v2.8
		c0,0-1.3,0-2.3,0s-1.1,0.5-1.1,1.3c0,0.6,0-1.2,0,2.1h3.4v3.4h-3.4v6.8L585.8,207.2L585.8,207.2z"/>
	<g>
		<rect x="620" y="181.1" fill="#3A588B" width="48" height="48"/>
		<path fill="#FFFFFF" d="M642.4,215.5v-9.8h-3.2v-3.8h3.2c0,0,0-1.1,0-2.7c0-2.4,1.6-4.5,5.3-4.5c1.5,0,2.6,0.1,2.6,0.1l-0.1,3.3
			c0,0-1.1,0-2.4,0s-1.6,0.6-1.6,1.6c0,0.8,0-2,0,2.2h4l-0.2,3.8h-3.9v9.8H642.4z"/>
	</g>
	<g>
		<polygon fill="#FFFFFF" points="696,182.6 694.5,181.1 688,187.6 681.5,181.1 680,182.6 686.5,189.1 680,195.6 681.5,197.1 
			688,190.6 694.5,197.1 696,195.6 689.5,189.1 		"/>
	</g>
	<g>
		<rect x="710" y="181.1" fill="#E66216" width="20" height="2"/>
		<rect x="710" y="187.1" fill="#E66216" width="20" height="2"/>
		<rect x="710" y="193.1" fill="#E66216" width="20" height="2"/>
	</g>
	<g>
		<rect x="740" y="181.1" fill="#414042" width="20" height="2"/>
		<rect x="740" y="187.1" fill="#414042" width="20" height="2"/>
		<rect x="740" y="193.1" fill="#414042" width="20" height="2"/>
	</g>
	<g>
		<rect x="770" y="181.1" fill="#FFFFFF" width="20" height="2"/>
		<rect x="770" y="187.1" fill="#FFFFFF" width="20" height="2"/>
		<rect x="770" y="193.1" fill="#FFFFFF" width="20" height="2"/>
	</g>
	<path fill="#FFFFFF" d="M815.7,194.6l-2.9-2.9c-0.4-0.4-0.9-0.4-1.3-0.2l-0.6-0.6c0.8-1,1.3-2.4,1.3-3.8c0-3.4-2.7-6.1-6.1-6.1
		c-3.4,0-6.1,2.7-6.1,6.1s2.7,6.1,6.1,6.1c1.4,0,2.7-0.5,3.8-1.3l0.6,0.6c-0.2,0.4-0.2,1,0.2,1.3l2.9,2.9c0.4,0.4,1.2,0.4,1.6,0
		l0.5-0.5C816.1,195.8,816.1,195.1,815.7,194.6z M801.1,187.2c0-2.8,2.2-5,5-5s5,2.2,5,5s-2.2,5-5,5
		C803.4,192.2,801.1,190,801.1,187.2z"/>
	<path fill="#E66216" d="M835.7,194.6l-2.9-2.9c-0.4-0.4-0.9-0.4-1.3-0.2l-0.6-0.6c0.8-1,1.3-2.4,1.3-3.8c0-3.4-2.7-6.1-6.1-6.1
		c-3.4,0-6.1,2.7-6.1,6.1s2.7,6.1,6.1,6.1c1.4,0,2.7-0.5,3.8-1.3l0.6,0.6c-0.2,0.4-0.2,1,0.2,1.3l2.9,2.9c0.4,0.4,1.2,0.4,1.6,0
		l0.5-0.5C836.1,195.8,836.1,195.1,835.7,194.6z M821.1,187.2c0-2.8,2.2-5,5-5s5,2.2,5,5s-2.2,5-5,5
		C823.4,192.2,821.1,190,821.1,187.2z"/>
	<path fill="#414042" d="M865.7,194.6l-2.9-2.9c-0.4-0.4-0.9-0.4-1.3-0.2l-0.6-0.6c0.8-1,1.3-2.4,1.3-3.8c0-3.4-2.7-6.1-6.1-6.1
		c-3.4,0-6.1,2.7-6.1,6.1s2.7,6.1,6.1,6.1c1.4,0,2.7-0.5,3.8-1.3l0.6,0.6c-0.2,0.4-0.2,1,0.2,1.3l2.9,2.9c0.4,0.4,1.2,0.4,1.6,0
		l0.5-0.5C866.1,195.8,866.1,195.1,865.7,194.6z M851.1,187.2c0-2.8,2.2-5,5-5s5,2.2,5,5s-2.2,5-5,5
		C853.4,192.2,851.1,190,851.1,187.2z"/>
	<polygon fill="#FFFFFF" points="692,216.5 686.6,216.5 686.6,211.1 685.4,211.1 685.4,216.5 680,216.5 680,217.7 685.4,217.7 
		685.4,223.1 686.6,223.1 686.6,217.7 692,217.7 	"/>
	<g>
		<path fill="#414042" d="M200,252.3c1.3-0.2,3.2-0.4,5.8-0.4c2.6,0,4.5,0.5,5.8,1.5c1.2,0.9,2,2.5,2,4.3s-0.6,3.4-1.7,4.4
			c-1.5,1.3-3.6,2-6.1,2c-0.6,0-1.1,0-1.5-0.1v6.7H200V252.3z M204.2,260.8c0.4,0.1,0.8,0.1,1.4,0.1c2.3,0,3.7-1.1,3.7-3
			c0-1.7-1.2-2.7-3.4-2.7c-0.8,0-1.4,0.1-1.7,0.1V260.8z"/>
		<path fill="#414042" d="M227.5,263.9c0,5-3.6,7.2-7.2,7.2c-4,0-7.1-2.6-7.1-7c0-4.4,2.9-7.2,7.3-7.2
			C224.7,256.9,227.5,259.8,227.5,263.9z M217.6,264c0,2.3,1,4.1,2.8,4.1c1.7,0,2.7-1.6,2.7-4.1c0-2-0.8-4-2.7-4
			C218.4,259.9,217.6,262,217.6,264z"/>
		<path fill="#414042" d="M232.8,253.5c0,1.2-0.9,2.1-2.3,2.1c-1.3,0-2.2-0.9-2.2-2.1s0.9-2.1,2.3-2.1
			C231.9,251.3,232.7,252.3,232.8,253.5z M228.4,270.8v-13.6h4.2v13.6H228.4z"/>
		<path fill="#414042" d="M234.9,261.6c0-1.7-0.1-3.1-0.1-4.3h3.7l0.2,1.9h0.1c0.6-0.9,1.9-2.2,4.2-2.2c2.8,0,4.9,1.9,4.9,5.9v8
			h-4.2v-7.5c0-1.7-0.6-2.9-2.2-2.9c-1.2,0-1.9,0.8-2.2,1.6c-0.1,0.3-0.1,0.7-0.1,1.1v7.8H235L234.9,261.6L234.9,261.6z"/>
		<path fill="#414042" d="M254.9,253.6v3.7h3v3.1h-3v4.9c0,1.6,0.4,2.4,1.7,2.4c0.6,0,0.9,0,1.3-0.1v3.2c-0.5,0.2-1.6,0.4-2.7,0.4
			c-1.4,0-2.5-0.5-3.2-1.2c-0.8-0.8-1.2-2.1-1.2-4v-5.5H249v-3.1h1.8v-2.5L254.9,253.6z"/>
		<path fill="#414042" d="M273.4,270.3c-0.8,0.4-2.5,0.8-4.8,0.8c-6.5,0-9.9-4-9.9-9.4c0-6.4,4.6-9.9,10.3-9.9
			c2.2,0,3.9,0.4,4.6,0.8l-0.9,3.3c-0.8-0.4-2-0.7-3.6-0.7c-3.4,0-6,2-6,6.2c0,3.7,2.2,6.1,6,6.1c1.3,0,2.7-0.2,3.6-0.6L273.4,270.3
			z"/>
		<path fill="#414042" d="M274.9,251.1h4.2v19.7h-4.2V251.1z"/>
		<path fill="#414042" d="M285.8,253.5c0,1.2-0.9,2.1-2.3,2.1c-1.3,0-2.2-0.9-2.2-2.1s0.9-2.1,2.3-2.1
			C285,251.3,285.8,252.3,285.8,253.5z M281.4,270.8v-13.6h4.2v13.6H281.4z"/>
		<path fill="#414042" d="M298.3,270.4c-0.8,0.4-2.2,0.6-3.8,0.6c-4.4,0-7.2-2.7-7.2-6.9c0-4,2.7-7.2,7.8-7.2c1.1,0,2.3,0.2,3.2,0.5
			l-0.7,3.1c-0.5-0.2-1.3-0.4-2.4-0.4c-2.2,0-3.7,1.6-3.7,3.8c0,2.5,1.7,3.8,3.7,3.8c1,0,1.8-0.2,2.4-0.4L298.3,270.4z"/>
		<path fill="#414042" d="M303.9,262.9L303.9,262.9c0.4-0.6,0.7-1.1,1-1.6l2.8-4.1h5.1l-4.9,5.5l5.6,8.1h-5.2l-3.3-5.6l-1.1,1.3v4.2
			h-4.2v-19.6h4.2V262.9L303.9,262.9z"/>
		<path fill="#414042" d="M327.7,270.3c-0.8,0.4-2.5,0.8-4.8,0.8c-6.5,0-9.9-4-9.9-9.4c0-6.4,4.6-9.9,10.3-9.9
			c2.2,0,3.9,0.4,4.6,0.8l-0.9,3.3c-0.8-0.4-2-0.7-3.6-0.7c-3.4,0-6,2-6,6.2c0,3.7,2.2,6.1,6,6.1c1.3,0,2.7-0.2,3.6-0.6L327.7,270.3
			z"/>
		<path fill="#414042" d="M340.6,267.5c0,1.3,0.1,2.5,0.2,3.3H337l-0.3-1.4h-0.1c-0.9,1.1-2.3,1.7-3.9,1.7c-2.8,0-4.4-2-4.4-4.2
			c0-3.5,3.2-5.2,8-5.2v-0.2c0-0.7-0.4-1.8-2.5-1.8c-1.4,0-2.9,0.5-3.8,1l-0.8-2.7c1-0.5,2.8-1.2,5.3-1.2c4.6,0,6,2.7,6,5.9
			L340.6,267.5L340.6,267.5z M336.5,264.4c-2.2,0-4,0.5-4,2.1c0,1.1,0.7,1.6,1.7,1.6s1.9-0.7,2.2-1.6c0.1-0.2,0.1-0.5,0.1-0.7V264.4
			z"/>
		<path fill="#414042" d="M342.9,261.7c0-2,0-3.3-0.1-4.5h3.6l0.2,2.5h0.1c0.7-2,2.3-2.8,3.7-2.8c0.4,0,0.6,0,0.9,0.1v4
			c-0.3-0.1-0.7-0.1-1.1-0.1c-1.6,0-2.6,0.8-2.9,2.1c-0.1,0.3-0.1,0.6-0.1,0.9v6.9H343L342.9,261.7L342.9,261.7z"/>
		<path fill="#414042" d="M355.8,265.4c0.1,1.7,1.9,2.6,3.9,2.6c1.5,0,2.6-0.2,3.8-0.6l0.6,2.9c-1.4,0.6-3.1,0.9-4.9,0.9
			c-4.6,0-7.3-2.7-7.3-6.9c0-3.4,2.2-7.2,6.9-7.2c4.4,0,6.1,3.4,6.1,6.8c0,0.7-0.1,1.4-0.1,1.7L355.8,265.4L355.8,265.4z
			 M360.8,262.5c0-1-0.4-2.7-2.4-2.7c-1.8,0-2.5,1.6-2.6,2.7H360.8z"/>
		<path fill="#414042" d="M367.7,251.4c1.3,0,2.3,1,2.3,2.3s-1,2.3-2.4,2.3c-1.3,0-2.4-1-2.4-2.3
			C365.3,252.4,366.3,251.4,367.7,251.4L367.7,251.4z M367.6,251.9c-1,0-1.8,0.8-1.8,1.8s0.8,1.8,1.8,1.8s1.7-0.8,1.7-1.8
			C369.4,252.7,368.7,251.9,367.6,251.9L367.6,251.9z M367.3,254.9h-0.5v-2.3c0.2,0,0.5-0.1,0.9-0.1c0.4,0,0.6,0.1,0.8,0.2
			c0.1,0.1,0.2,0.3,0.2,0.5c0,0.3-0.2,0.5-0.5,0.5l0,0c0.2,0.1,0.3,0.2,0.4,0.6c0.1,0.3,0.1,0.5,0.2,0.6h-0.6
			c-0.1-0.1-0.1-0.3-0.2-0.6c0-0.2-0.2-0.3-0.5-0.3h-0.3L367.3,254.9L367.3,254.9z M367.3,253.6h0.3c0.3,0,0.5-0.1,0.5-0.3
			c0-0.2-0.2-0.3-0.5-0.3c-0.1,0-0.2,0-0.3,0V253.6L367.3,253.6z"/>
	</g>
	<g>
		<path fill="#FFFFFF" d="M200,302.3c1.3-0.2,3.2-0.4,5.8-0.4c2.6,0,4.5,0.5,5.8,1.5c1.2,0.9,2,2.5,2,4.3s-0.6,3.4-1.7,4.4
			c-1.5,1.3-3.6,2-6.1,2c-0.6,0-1.1,0-1.5-0.1v6.7H200V302.3z M204.2,310.8c0.4,0.1,0.8,0.1,1.4,0.1c2.3,0,3.7-1.1,3.7-3
			c0-1.7-1.2-2.7-3.4-2.7c-0.8,0-1.4,0.1-1.7,0.1V310.8z"/>
		<path fill="#FFFFFF" d="M227.5,313.9c0,5-3.6,7.2-7.2,7.2c-4,0-7.1-2.6-7.1-7s2.9-7.2,7.3-7.2
			C224.7,306.9,227.5,309.8,227.5,313.9z M217.6,314c0,2.3,1,4.1,2.8,4.1c1.7,0,2.7-1.6,2.7-4.1c0-2-0.8-4-2.7-4
			C218.4,309.9,217.6,312,217.6,314z"/>
		<path fill="#FFFFFF" d="M232.8,303.5c0,1.2-0.9,2.1-2.3,2.1c-1.3,0-2.2-0.9-2.2-2.1c0-1.2,0.9-2.1,2.3-2.1
			C231.9,301.3,232.7,302.3,232.8,303.5z M228.4,320.8v-13.6h4.2v13.6H228.4z"/>
		<path fill="#FFFFFF" d="M234.9,311.6c0-1.7-0.1-3.1-0.1-4.3h3.7l0.2,1.9h0.1c0.6-0.9,1.9-2.2,4.2-2.2c2.8,0,4.9,1.9,4.9,5.9v8
			h-4.2v-7.5c0-1.7-0.6-2.9-2.2-2.9c-1.2,0-1.9,0.8-2.2,1.6c-0.1,0.3-0.1,0.7-0.1,1.1v7.8H235L234.9,311.6L234.9,311.6z"/>
		<path fill="#FFFFFF" d="M254.9,303.6v3.7h3v3.1h-3v4.9c0,1.6,0.4,2.4,1.7,2.4c0.6,0,0.9,0,1.3-0.1v3.2c-0.5,0.2-1.6,0.4-2.7,0.4
			c-1.4,0-2.5-0.5-3.2-1.2c-0.8-0.8-1.2-2.1-1.2-4v-5.5H249v-3.1h1.8v-2.5L254.9,303.6z"/>
		<path fill="#FFFFFF" d="M273.4,320.3c-0.8,0.4-2.5,0.8-4.8,0.8c-6.5,0-9.9-4-9.9-9.4c0-6.4,4.6-9.9,10.3-9.9
			c2.2,0,3.9,0.4,4.6,0.8l-0.9,3.3c-0.8-0.4-2-0.7-3.6-0.7c-3.4,0-6,2-6,6.2c0,3.7,2.2,6.1,6,6.1c1.3,0,2.7-0.2,3.6-0.6L273.4,320.3
			z"/>
		<path fill="#FFFFFF" d="M274.9,301.1h4.2v19.7h-4.2V301.1z"/>
		<path fill="#FFFFFF" d="M285.8,303.5c0,1.2-0.9,2.1-2.3,2.1c-1.3,0-2.2-0.9-2.2-2.1c0-1.2,0.9-2.1,2.3-2.1
			C285,301.3,285.8,302.3,285.8,303.5z M281.4,320.8v-13.6h4.2v13.6H281.4z"/>
		<path fill="#FFFFFF" d="M298.3,320.4c-0.8,0.4-2.2,0.6-3.8,0.6c-4.4,0-7.2-2.7-7.2-6.9c0-4,2.7-7.2,7.8-7.2c1.1,0,2.3,0.2,3.2,0.5
			l-0.7,3.1c-0.5-0.2-1.3-0.4-2.4-0.4c-2.2,0-3.7,1.6-3.7,3.8c0,2.5,1.7,3.8,3.7,3.8c1,0,1.8-0.2,2.4-0.4L298.3,320.4z"/>
		<path fill="#FFFFFF" d="M303.9,312.9L303.9,312.9c0.4-0.6,0.7-1.1,1-1.6l2.8-4.1h5.1l-4.9,5.5l5.6,8.1h-5.2l-3.3-5.6l-1.1,1.3v4.2
			h-4.2v-19.6h4.2V312.9L303.9,312.9z"/>
		<path fill="#FFFFFF" d="M327.7,320.3c-0.8,0.4-2.5,0.8-4.8,0.8c-6.5,0-9.9-4-9.9-9.4c0-6.4,4.6-9.9,10.3-9.9
			c2.2,0,3.9,0.4,4.6,0.8l-0.9,3.3c-0.8-0.4-2-0.7-3.6-0.7c-3.4,0-6,2-6,6.2c0,3.7,2.2,6.1,6,6.1c1.3,0,2.7-0.2,3.6-0.6L327.7,320.3
			z"/>
		<path fill="#FFFFFF" d="M340.6,317.5c0,1.3,0.1,2.5,0.2,3.3H337l-0.3-1.4h-0.1c-0.9,1.1-2.3,1.7-3.9,1.7c-2.8,0-4.4-2-4.4-4.2
			c0-3.5,3.2-5.2,8-5.2v-0.2c0-0.7-0.4-1.8-2.5-1.8c-1.4,0-2.9,0.5-3.8,1l-0.8-2.7c1-0.5,2.8-1.2,5.3-1.2c4.6,0,6,2.7,6,5.9
			L340.6,317.5L340.6,317.5z M336.5,314.4c-2.2,0-4,0.5-4,2.1c0,1.1,0.7,1.6,1.7,1.6s1.9-0.7,2.2-1.6c0.1-0.2,0.1-0.5,0.1-0.7V314.4
			z"/>
		<path fill="#FFFFFF" d="M342.9,311.7c0-2,0-3.3-0.1-4.5h3.6l0.2,2.5h0.1c0.7-2,2.3-2.8,3.7-2.8c0.4,0,0.6,0,0.9,0.1v4
			c-0.3-0.1-0.7-0.1-1.1-0.1c-1.6,0-2.6,0.8-2.9,2.1c-0.1,0.3-0.1,0.6-0.1,0.9v6.9H343L342.9,311.7L342.9,311.7z"/>
		<path fill="#FFFFFF" d="M355.8,315.4c0.1,1.7,1.9,2.6,3.9,2.6c1.5,0,2.6-0.2,3.8-0.6l0.6,2.9c-1.4,0.6-3.1,0.9-4.9,0.9
			c-4.6,0-7.3-2.7-7.3-6.9c0-3.4,2.2-7.2,6.9-7.2c4.4,0,6.1,3.4,6.1,6.8c0,0.7-0.1,1.4-0.1,1.7L355.8,315.4L355.8,315.4z
			 M360.8,312.5c0-1-0.4-2.7-2.4-2.7c-1.8,0-2.5,1.6-2.6,2.7H360.8z"/>
		<path fill="#FFFFFF" d="M367.7,301.4c1.3,0,2.3,1,2.3,2.3s-1,2.3-2.4,2.3c-1.3,0-2.4-1-2.4-2.3S366.3,301.4,367.7,301.4
			L367.7,301.4z M367.6,301.9c-1,0-1.8,0.8-1.8,1.8s0.8,1.8,1.8,1.8s1.7-0.8,1.7-1.8C369.4,302.7,368.7,301.9,367.6,301.9
			L367.6,301.9z M367.3,304.9h-0.5v-2.3c0.2,0,0.5-0.1,0.9-0.1c0.4,0,0.6,0.1,0.8,0.2c0.1,0.1,0.2,0.3,0.2,0.5
			c0,0.3-0.2,0.5-0.5,0.5l0,0c0.2,0.1,0.3,0.2,0.4,0.6c0.1,0.3,0.1,0.5,0.2,0.6h-0.6c-0.1-0.1-0.1-0.3-0.2-0.6
			c0-0.2-0.2-0.3-0.5-0.3h-0.3L367.3,304.9L367.3,304.9z M367.3,303.6h0.3c0.3,0,0.5-0.1,0.5-0.3s-0.2-0.3-0.5-0.3
			c-0.1,0-0.2,0-0.3,0V303.6L367.3,303.6z"/>
	</g>
	<polygon fill="#E66216" points="390,291.1 390,251.1 430,251.1 	"/>
	<polygon fill="#FFFFFF" points="406,261.1 402,261.1 402,257.1 400,257.1 400,261.1 396,261.1 396,263.1 400,263.1 400,267.1 
		402,267.1 402,263.1 406,263.1 	"/>
	<polygon fill="#414042" points="450,291.1 450,251.1 490,251.1 	"/>
	<polygon fill="#FFFFFF" points="465.2,264.9 462.4,262.1 465.2,259.3 463.8,257.9 461,260.7 458.2,257.9 456.8,259.3 459.6,262.1 
		456.8,264.9 458.2,266.3 461,263.5 463.8,266.3 	"/>
	<g>
		<g id="monitor_6_">
			<g>
				<path fill="#FFFFFF" d="M523.2,251.9c-0.5-0.5-1.2-0.8-1.9-0.8h-18.6c-0.7,0-1.5,0.3-1.9,0.8c-0.6,0.5-0.8,1.2-0.8,1.9v10.9
					c0,0.8,0.3,1.4,0.8,2c0.5,0.5,1.2,0.8,1.9,0.8h7.4v1.8H504v1.8h15.9v-1.8h-6.1v-1.8h7.5c0.7,0,1.5-0.3,1.9-0.8
					c0.6-0.5,0.8-1.2,0.8-2v-10.9C524,253.1,523.8,252.4,523.2,251.9z M522.1,265c0,0.2-0.1,0.4-0.2,0.5c-0.1,0.2-0.3,0.2-0.5,0.2
					h-19c-0.2,0-0.4,0-0.5-0.2c-0.1-0.1-0.2-0.3-0.2-0.5v-11.4c0-0.2,0.1-0.4,0.2-0.5s0.3-0.2,0.5-0.2h19c0.2,0,0.4,0.1,0.5,0.2
					c0.1,0.1,0.2,0.3,0.2,0.5V265z"/>
			</g>
		</g>
	</g>
	<rect x="540" y="251.1" fill="#E66216" width="36" height="36"/>
	<path fill="#FFFFFF" d="M565.2,274.3l-2.7-2.7c-0.3-0.3-0.8-0.4-1.2-0.2l-0.5-0.5c0.8-1,1.2-2.2,1.2-3.6c0-3.2-2.6-5.7-5.7-5.7
		c-3.2,0-5.7,2.6-5.7,5.7c0,3.2,2.6,5.7,5.7,5.7c1.3,0,2.6-0.5,3.5-1.2l0.5,0.5c-0.2,0.4-0.2,0.9,0.2,1.2l2.7,2.7
		c0.4,0.4,1.1,0.4,1.5,0l0.5-0.5C565.6,275.4,565.6,274.7,565.2,274.3z M551.6,267.3c0-2.6,2.1-4.7,4.7-4.7c2.6,0,4.7,2.1,4.7,4.7
		c0,2.6-2.1,4.7-4.7,4.7C553.7,272,551.6,269.9,551.6,267.3z"/>
	<rect x="590" y="251.1" fill="#414042" width="36" height="36"/>
	<path fill="#FFFFFF" d="M615.2,274.3l-2.7-2.7c-0.3-0.3-0.8-0.4-1.2-0.2l-0.5-0.5c0.8-1,1.2-2.2,1.2-3.6c0-3.2-2.6-5.7-5.7-5.7
		c-3.2,0-5.7,2.6-5.7,5.7c0,3.2,2.6,5.7,5.7,5.7c1.3,0,2.6-0.5,3.5-1.2l0.5,0.5c-0.2,0.4-0.2,0.9,0.2,1.2l2.7,2.7
		c0.4,0.4,1.1,0.4,1.5,0l0.5-0.5C615.6,275.4,615.6,274.7,615.2,274.3z M601.6,267.3c0-2.6,2.1-4.7,4.7-4.7c2.6,0,4.7,2.1,4.7,4.7
		c0,2.6-2.1,4.7-4.7,4.7C603.7,272,601.6,269.9,601.6,267.3z"/>
	<path fill="#095460" d="M666.3,264.2c-0.6,0.3-1.3,0.5-2,0.5c0.7-0.4,1.2-1.1,1.5-1.9c-0.7,0.4-1.4,0.7-2.2,0.8
		c-0.6-0.7-1.5-1.1-2.5-1.1c-1.9,0-3.4,1.5-3.4,3.4c0,0.3,0,0.5,0.1,0.8c-2.8-0.1-5.3-1.5-7-3.6c-0.3,0.5-0.5,1.1-0.5,1.7
		c0,1.2,0.6,2.2,1.5,2.8c-0.6,0-1.1-0.2-1.5-0.4l0,0c0,1.7,1.2,3,2.7,3.3c-0.3,0.1-0.6,0.1-0.9,0.1c-0.2,0-0.4,0-0.6-0.1
		c0.4,1.4,1.7,2.3,3.2,2.4c-1.2,0.9-2.6,1.5-4.2,1.5c-0.3,0-0.5,0-0.8,0c1.5,1,3.3,1.5,5.2,1.5c6.3,0,9.7-5.2,9.7-9.7
		c0-0.1,0-0.3,0-0.4C665.3,265.5,665.8,264.9,666.3,264.2z"/>
	<path fill="#095460" d="M675.5,251.6v35h-35v-35H675.5 M676,251.1h-36v36h36V251.1L676,251.1z"/>
	<path fill="#095460" d="M726,251.1h-36v36h36V251.1L726,251.1z"/>
	<path fill="#FFFFFF" d="M716.3,264.2c-0.6,0.3-1.3,0.5-2,0.5c0.7-0.4,1.2-1.1,1.5-1.9c-0.7,0.4-1.4,0.7-2.2,0.8
		c-0.6-0.7-1.5-1.1-2.5-1.1c-1.9,0-3.4,1.5-3.4,3.4c0,0.3,0,0.5,0.1,0.8c-2.8-0.1-5.3-1.5-7-3.6c-0.3,0.5-0.5,1.1-0.5,1.7
		c0,1.2,0.6,2.2,1.5,2.8c-0.6,0-1.1-0.2-1.5-0.4l0,0c0,1.7,1.2,3,2.7,3.3c-0.3,0.1-0.6,0.1-0.9,0.1c-0.2,0-0.4,0-0.6-0.1
		c0.4,1.4,1.7,2.3,3.2,2.4c-1.2,0.9-2.6,1.5-4.2,1.5c-0.3,0-0.5,0-0.8,0c1.5,1,3.3,1.5,5.2,1.5c6.3,0,9.7-5.2,9.7-9.7
		c0-0.1,0-0.3,0-0.4C715.3,265.5,715.8,264.9,716.3,264.2z"/>
	<g>
		<rect x="740" y="251.1" fill="#2A99D0" width="48" height="48"/>
		<path fill="#FFFFFF" d="M775.3,268.4c-0.8,0.4-1.7,0.6-2.6,0.7c0.9-0.6,1.6-1.4,2-2.5c-0.9,0.5-1.8,0.9-2.8,1.1
			c-0.8-0.9-2-1.4-3.2-1.4c-2.5,0-4.4,2-4.4,4.4c0,0.4,0,0.7,0.1,1c-3.7-0.2-7-2-9.2-4.6c-0.4,0.7-0.6,1.4-0.6,2.2
			c0,1.5,0.8,2.9,2,3.7c-0.7,0-1.4-0.2-2-0.6c0,0,0,0,0,0.1c0,2.2,1.5,3.9,3.6,4.4c-0.4,0.1-0.8,0.2-1.2,0.2c-0.3,0-0.6,0-0.8-0.1
			c0.6,1.8,2.2,3,4.2,3.1c-1.5,1.2-3.4,1.9-5.5,1.9c-0.4,0-0.7,0-1.1-0.1c2,1.3,4.3,2,6.8,2c8.2,0,12.6-6.8,12.6-12.6
			c0-0.2,0-0.4,0-0.6C773.9,270.1,774.7,269.3,775.3,268.4z"/>
	</g>
	<g id="YouTube_2_">
		<g>
			<path fill="#095460" d="M824,273.8h-1.1v-0.7c0-0.3,0.2-0.5,0.5-0.5h0.1c0.3,0,0.5,0.2,0.5,0.5V273.8z M819.8,272.4
				c-0.3,0-0.5,0.2-0.5,0.4v3.2c0,0.2,0.2,0.4,0.5,0.4s0.5-0.2,0.5-0.4v-3.2C820.3,272.6,820.1,272.4,819.8,272.4z M826.6,270.6v6
				c0,1.4-1.3,2.6-2.8,2.6h-11.5c-1.5,0-2.8-1.2-2.8-2.6v-6c0-1.4,1.3-2.6,2.8-2.6h11.5C825.3,268,826.6,269.2,826.6,270.6z
				 M813.1,277.3V271h1.4v-0.9h-3.8v0.9h1.2v6.4L813.1,277.3L813.1,277.3z M817.4,271.9h-1.2v3.4c0,0.5,0,0.7,0,0.8
				c-0.1,0.3-0.5,0.5-0.7,0c0-0.1,0-0.4,0-0.8v-3.4h-1.2v3.4c0,0.5,0,0.9,0,1.1c0,0.3,0,0.7,0.3,0.9c0.5,0.4,1.6-0.1,1.8-0.6v0.7h1
				L817.4,271.9L817.4,271.9z M821.2,275.8V273c0-1.1-0.8-1.7-1.9-0.9V270h-1.2v7.2h1l0.1-0.5C820.4,277.9,821.2,277.2,821.2,275.8z
				 M824.9,275.4H824v0.1v0.5c0,0.3-0.2,0.5-0.5,0.5h-0.2c-0.3,0-0.5-0.2-0.5-0.5v-0.1v-0.5v-0.7h2v-0.8c0-0.6,0-1.1-0.1-1.4
				c-0.1-1-1.6-1.2-2.3-0.7c-0.2,0.2-0.4,0.4-0.5,0.7s-0.1,0.7-0.1,1.2v1.7C821.9,278.2,825.3,277.8,824.9,275.4z M820.3,266.3
				c0.1,0.1,0.2,0.3,0.3,0.4c0.1,0.1,0.3,0.1,0.5,0.1s0.3,0,0.5-0.1c0.1-0.1,0.2-0.2,0.3-0.4v0.5h1.3v-5.7h-1v4.4
				c0,0.2-0.2,0.4-0.4,0.4s-0.4-0.2-0.4-0.4v-4.4h-1.1v3.8c0,0.5,0,0.8,0,1C820.2,266,820.3,266.1,820.3,266.3z M816.3,263.1
				c0-0.5,0-1,0.1-1.3s0.3-0.5,0.5-0.7s0.5-0.3,0.9-0.3c0.3,0,0.6,0.1,0.8,0.2s0.4,0.3,0.5,0.5s0.2,0.4,0.2,0.6
				c0,0.2,0.1,0.5,0.1,0.9v1.4c0,0.5,0,0.9-0.1,1.1c0,0.2-0.1,0.5-0.3,0.7c-0.1,0.2-0.3,0.4-0.5,0.5s-0.4,0.2-0.7,0.2
				s-0.6,0-0.8-0.1s-0.4-0.2-0.5-0.4s-0.2-0.4-0.2-0.6c0-0.2-0.1-0.6-0.1-1.1L816.3,263.1L816.3,263.1z M817.3,265.4
				c0,0.3,0.2,0.6,0.5,0.6s0.5-0.3,0.5-0.6v-3c0-0.3-0.2-0.6-0.5-0.6s-0.5,0.3-0.5,0.6V265.4z M813.7,266.9h1.2v-4.3l1.5-3.7H815
				l-0.8,2.7l-0.8-2.7h-1.3l1.6,3.7V266.9z"/>
		</g>
	</g>
	<path fill="#095460" d="M835.5,251.6v35h-35v-35H835.5 M836,251.1h-36v36h36V251.1L836,251.1z"/>
	<path fill="#095460" d="M886,251.1h-36v36h36V251.1L886,251.1z"/>
	<g id="YouTube_1_">
		<g>
			<path fill="#FFFFFF" d="M874,273.8h-1.1v-0.7c0-0.3,0.2-0.5,0.5-0.5h0.1c0.3,0,0.5,0.2,0.5,0.5V273.8z M869.8,272.4
				c-0.3,0-0.5,0.2-0.5,0.4v3.2c0,0.2,0.2,0.4,0.5,0.4s0.5-0.2,0.5-0.4v-3.2C870.3,272.6,870.1,272.4,869.8,272.4z M876.6,270.6v6
				c0,1.4-1.3,2.6-2.8,2.6h-11.5c-1.5,0-2.8-1.2-2.8-2.6v-6c0-1.4,1.3-2.6,2.8-2.6h11.5C875.3,268,876.6,269.2,876.6,270.6z
				 M863.1,277.3V271h1.4v-0.9h-3.8v0.9h1.2v6.4L863.1,277.3L863.1,277.3z M867.4,271.9h-1.2v3.4c0,0.5,0,0.7,0,0.8
				c-0.1,0.3-0.5,0.5-0.7,0c0-0.1,0-0.4,0-0.8v-3.4h-1.2v3.4c0,0.5,0,0.9,0,1.1c0,0.3,0,0.7,0.3,0.9c0.5,0.4,1.6-0.1,1.8-0.6v0.7h1
				L867.4,271.9L867.4,271.9z M871.2,275.8V273c0-1.1-0.8-1.7-1.9-0.9V270h-1.2v7.2h1l0.1-0.5C870.4,277.9,871.2,277.2,871.2,275.8z
				 M874.9,275.4H874v0.1v0.5c0,0.3-0.2,0.5-0.5,0.5h-0.2c-0.3,0-0.5-0.2-0.5-0.5v-0.1v-0.5v-0.7h2v-0.8c0-0.6,0-1.1-0.1-1.4
				c-0.1-1-1.6-1.2-2.3-0.7c-0.2,0.2-0.4,0.4-0.5,0.7s-0.1,0.7-0.1,1.2v1.7C871.9,278.2,875.3,277.8,874.9,275.4z M870.3,266.3
				c0.1,0.1,0.2,0.3,0.3,0.4c0.1,0.1,0.3,0.1,0.5,0.1s0.3,0,0.5-0.1c0.1-0.1,0.2-0.2,0.3-0.4v0.5h1.3v-5.7h-1v4.4
				c0,0.2-0.2,0.4-0.4,0.4s-0.4-0.2-0.4-0.4v-4.4h-1.1v3.8c0,0.5,0,0.8,0,1C870.2,266,870.3,266.1,870.3,266.3z M866.3,263.1
				c0-0.5,0-1,0.1-1.3s0.3-0.5,0.5-0.7s0.5-0.3,0.9-0.3c0.3,0,0.6,0.1,0.8,0.2s0.4,0.3,0.5,0.5s0.2,0.4,0.2,0.6
				c0,0.2,0.1,0.5,0.1,0.9v1.4c0,0.5,0,0.9-0.1,1.1c0,0.2-0.1,0.5-0.3,0.7c-0.1,0.2-0.3,0.4-0.5,0.5s-0.4,0.2-0.7,0.2
				s-0.6,0-0.8-0.1s-0.4-0.2-0.5-0.4s-0.2-0.4-0.2-0.6c0-0.2-0.1-0.6-0.1-1.1L866.3,263.1L866.3,263.1z M867.3,265.4
				c0,0.3,0.2,0.6,0.5,0.6s0.5-0.3,0.5-0.6v-3c0-0.3-0.2-0.6-0.5-0.6s-0.5,0.3-0.5,0.6V265.4z M863.7,266.9h1.2v-4.3l1.5-3.7H865
				l-0.8,2.7l-0.8-2.7h-1.3l1.6,3.7V266.9z"/>
		</g>
	</g>
	<circle fill="#E66216" cx="936" cy="217.1" r="36"/>
	<g>
		<path fill="#FFFFFF" d="M923,213.6h3c2.2,0,2.7,1.3,2.7,2.4s-0.6,2.4-2.7,2.4h-1.8v3.7H923V213.6L923,213.6z M924.1,217.4h1.5
			c0.9,0,1.8-0.2,1.8-1.4c0-1.2-0.9-1.4-1.8-1.4h-1.5V217.4z"/>
		<path fill="#FFFFFF" d="M930.1,213.6h1.2v7.4h3.9v1.1h-5.1L930.1,213.6L930.1,213.6z"/>
		<path fill="#FFFFFF" d="M939,213.6h1l3.6,8.5h-1.3l-0.9-2.1h-4l-0.8,2.1h-1.3L939,213.6z M941,219l-1.6-3.9l0,0l-1.6,3.9H941z"/>
		<path fill="#FFFFFF" d="M945.9,218.5l-3.2-4.9h1.5l2.3,3.7l2.4-3.7h1.4l-3.2,4.9v3.6h-1.2V218.5z"/>
	</g>
	<g>
		<circle fill="#414042" cx="1026" cy="217.1" r="36"/>
		<g>
			<path fill="#FFFFFF" d="M1013,213.6h3c2.2,0,2.7,1.3,2.7,2.4s-0.6,2.4-2.7,2.4h-1.8v3.7h-1.2V213.6L1013,213.6z M1014.1,217.4
				h1.5c0.9,0,1.8-0.2,1.8-1.4c0-1.2-0.9-1.4-1.8-1.4h-1.5V217.4z"/>
			<path fill="#FFFFFF" d="M1020.1,213.6h1.2v7.4h3.9v1.1h-5.1L1020.1,213.6L1020.1,213.6z"/>
			<path fill="#FFFFFF" d="M1029,213.6h1l3.6,8.5h-1.3l-0.9-2.1h-4l-0.8,2.1h-1.3L1029,213.6z M1031,219l-1.6-3.9l0,0l-1.6,3.9H1031
				z"/>
			<path fill="#FFFFFF" d="M1035.9,218.5l-3.2-4.9h1.5l2.3,3.7l2.4-3.7h1.4l-3.2,4.9v3.6h-1.2V218.5z"/>
		</g>
	</g>
	<text transform="matrix(1 0 0 1 394.252 309.7548)" fill="#095460" font-family="'Wingdings2'" font-size="13"></text>
	<g>
		<path fill="#095460" d="M203.9,185v-3.9h1.6v3.9h3.9v1.6h-3.9v3.9h-1.6v-3.9H200V185H203.9z"/>
	</g>
	<polygon fill="#FFFFFF" points="712,216.5 706.6,216.5 706.6,216.5 705.4,216.5 705.4,216.5 700,216.5 700,217.7 705.4,217.7 
		705.4,217.7 707,217.7 706.6,217.7 712,217.7 	"/>
	<g>
		<rect x="900" y="261.1" fill="#E66216" width="64" height="64"/>
	</g>
	<path fill="#FFFFFF" d="M943.5,301.4l-4.3-4.3c-0.5-0.5-1.3-0.6-2-0.3l-0.8-0.8c1.2-1.6,2-3.5,2-5.7c0-5.1-4.1-9.2-9.2-9.2
		c-5.1,0-9.2,4.1-9.2,9.2c0,5.1,4.1,9.2,9.2,9.2c2.1,0,4.1-0.7,5.7-2l0.8,0.8c-0.3,0.6-0.3,1.4,0.3,2l4.3,4.3c0.7,0.7,1.7,0.7,2.4,0
		l0.8-0.8C944.2,303.1,944.2,302,943.5,301.4z M921.7,290.3c0-4.1,3.3-7.5,7.5-7.5c4.1,0,7.5,3.3,7.5,7.5c0,4.1-3.3,7.5-7.5,7.5
		C925,297.7,921.7,294.4,921.7,290.3z"/>
	<g>
		<rect x="980" y="261.1" fill="#414042" width="64" height="64"/>
	</g>
	<path fill="#FFFFFF" d="M1023.5,301.4l-4.3-4.3c-0.5-0.5-1.3-0.6-2-0.3l-0.8-0.8c1.2-1.6,2-3.5,2-5.7c0-5.1-4.1-9.2-9.2-9.2
		c-5.1,0-9.2,4.1-9.2,9.2c0,5.1,4.1,9.2,9.2,9.2c2.1,0,4.1-0.7,5.7-2l0.8,0.8c-0.3,0.6-0.3,1.4,0.3,2l4.3,4.3c0.7,0.7,1.7,0.7,2.4,0
		l0.8-0.8C1024.2,303.1,1024.2,302,1023.5,301.4z M1001.7,290.3c0-4.1,3.3-7.5,7.5-7.5c4.1,0,7.5,3.3,7.5,7.5c0,4.1-3.3,7.5-7.5,7.5
		C1005,297.7,1001.7,294.4,1001.7,290.3z"/>
	<polygon fill="#095460" points="732,216.5 726.6,216.5 726.6,211.1 725.4,211.1 725.4,216.5 720,216.5 720,217.7 725.4,217.7 
		725.4,223.1 726.6,223.1 726.6,217.7 732,217.7 	"/>
	<polygon fill="#095460" points="752,216.5 746.6,216.5 746.6,216.5 745.4,216.5 745.4,216.5 740,216.5 740,217.7 745.4,217.7 
		745.4,217.7 747,217.7 746.6,217.7 752,217.7 	"/>
</g>
<g id="Layer_2">
	<g>
		<rect x="540" y="296.1" fill="#17506B" width="7" height="7"/>
		<rect x="550" y="296.1" fill="#17506B" width="7" height="7"/>
		<rect x="560" y="296.1" fill="#17506B" width="7" height="7"/>
		<rect x="540" y="306.1" fill="#17506B" width="7" height="7"/>
		<rect x="550" y="306.1" fill="#17506B" width="7" height="7"/>
		<rect x="560" y="306.1" fill="#17506B" width="7" height="7"/>
		<rect x="540" y="316.1" fill="#17506B" width="7" height="7"/>
		<rect x="550" y="316.1" fill="#17506B" width="7" height="7"/>
		<rect x="560" y="316.1" fill="#17506B" width="7" height="7"/>
	</g>
	<g>
		<rect x="640" y="296.1" fill="#17506B" width="27" height="4"/>
		<rect x="640" y="304.1" fill="#17506B" width="27" height="4"/>
		<rect x="640" y="311.6" fill="#17506B" width="27" height="4"/>
		<rect x="640" y="319.1" fill="#17506B" width="27" height="4"/>
	</g>
	<g>
		<rect x="590" y="296.1" fill="#F48337" width="7" height="7"/>
		<rect x="600" y="296.1" fill="#F48337" width="7" height="7"/>
		<rect x="610" y="296.1" fill="#F48337" width="7" height="7"/>
		<rect x="590" y="306.1" fill="#F48337" width="7" height="7"/>
		<rect x="600" y="306.1" fill="#F48337" width="7" height="7"/>
		<rect x="610" y="306.1" fill="#F48337" width="7" height="7"/>
		<rect x="590" y="316.1" fill="#F48337" width="7" height="7"/>
		<rect x="600" y="316.1" fill="#F48337" width="7" height="7"/>
		<rect x="610" y="316.1" fill="#F48337" width="7" height="7"/>
	</g>
	<g>
		<rect x="690" y="296.1" fill="#F48337" width="27" height="4"/>
		<rect x="690" y="304.1" fill="#F48337" width="27" height="4"/>
		<rect x="690" y="311.6" fill="#F48337" width="27" height="4"/>
		<rect x="690" y="319.1" fill="#F48337" width="27" height="4"/>
	</g>
</g>
<g>
	<rect x="1125" y="281" fill="#095460" width="36" height="36"/>
	<g>
		<polygon fill="#FFFFFF" points="1138.5,305.75 1138.5,295.625 1135.125,295.625 1135.125,305.75 		"/>
		<path fill="#FFFFFF" d="M1136.841,294.02c1.195,0,1.942-0.793,1.942-1.783c-0.022-1.012-0.747-1.783-1.921-1.783
			c-1.171,0-1.937,0.771-1.937,1.783c0,0.99,0.744,1.783,1.894,1.783H1136.841L1136.841,294.02z"/>
		<path fill="#FFFFFF" d="M1140.75,305.75h3.375v-5.625c0-0.307,0.025-0.756,0.116-0.976c0.245-0.617,0.868-1.255,1.814-1.255
			c1.241,0,1.444,0.842,1.444,2.23v5.625h3.375v-5.92c0-3.168-1.694-4.645-3.947-4.645c-1.852,0-2.353,0.859-2.803,1.564l0,0v-1.125
			h-3.374C1140.799,296.592,1140.75,305.75,1140.75,305.75L1140.75,305.75z"/>
	</g>
</g>
<g>
	<path fill="#095460" d="M1115.5,181.5v35h-35v-35H1115.5 M1116,181h-36v36h36V181L1116,181z"/>
	<g>
		<path fill="#095460" d="M1105,192.291c-0.665-0.029-1.405-0.066-2.068-0.104c0,1.178,0.009,8.15,0,10.466
			c0.033,0.726-0.296,1.562-1.039,1.793c-1.755,0.635-3.502,1.29-5.264,1.903c-0.006-3.737-0.018-13.328-0.004-14.383
			c-0.067-0.66,0.62-1.209,1.246-1.133c2.379,0.224,4.747,0.568,7.129,0.767c-0.007-0.436-0.009-0.871-0.009-1.307
			c-3.154-0.583-6.31-1.169-9.464-1.757c-0.466-0.071-0.972-0.152-1.413,0.063c-0.696,0.268-1.142,1.015-1.105,1.752
			c-0.017,1.545-0.005,3.092,0,4.639c0.009,4.371-0.022,8.741,0.002,13.112c0,0.69,0.549,1.374,1.259,1.424
			c0.557,0.077,1.08-0.18,1.583-0.379c2.642-1.112,5.297-2.194,7.937-3.312c0.883-0.351,1.21-1.408,1.21-2.282
			C1105,200.926,1105,193.648,1105,192.291z"/>
	</g>
</g>
<rect x="1125" y="181" fill="#095460" width="36" height="36"/>
<g>
	<path fill="#FFFFFF" d="M1150,192.291c-0.665-0.029-1.405-0.066-2.068-0.104c0,1.178,0.009,8.15,0,10.466
		c0.033,0.726-0.296,1.562-1.039,1.793c-1.755,0.635-3.502,1.29-5.264,1.903c-0.006-3.737-0.018-13.328-0.004-14.383
		c-0.067-0.66,0.62-1.209,1.246-1.133c2.379,0.224,4.747,0.568,7.129,0.767c-0.007-0.436-0.009-0.871-0.009-1.307
		c-3.154-0.583-6.31-1.169-9.464-1.757c-0.466-0.071-0.972-0.152-1.413,0.063c-0.696,0.268-1.142,1.015-1.105,1.752
		c-0.017,1.545-0.005,3.092,0,4.639c0.009,4.371-0.022,8.741,0.002,13.112c0,0.69,0.549,1.374,1.259,1.424
		c0.557,0.077,1.08-0.18,1.583-0.379c2.642-1.112,5.297-2.194,7.937-3.312c0.883-0.351,1.21-1.408,1.21-2.282
		C1150,200.926,1150,193.648,1150,192.291z"/>
</g>
<g>
	<path fill="#095460" d="M1115.5,281.5v35h-35v-35H1115.5 M1116,281h-36v36h36V281L1116,281z"/>
	<g>
		<polygon fill="#095460" points="1093.5,305.75 1093.5,295.625 1090.125,295.625 1090.125,305.75 		"/>
		<path fill="#095460" d="M1091.841,294.02c1.195,0,1.942-0.793,1.942-1.783c-0.022-1.012-0.747-1.783-1.921-1.783
			c-1.171,0-1.937,0.771-1.937,1.783c0,0.99,0.744,1.783,1.894,1.783H1091.841L1091.841,294.02z"/>
		<path fill="#095460" d="M1095.75,305.75h3.375v-5.625c0-0.307,0.025-0.756,0.116-0.976c0.245-0.617,0.868-1.255,1.814-1.255
			c1.241,0,1.444,0.842,1.444,2.23v5.625h3.375v-5.92c0-3.168-1.694-4.645-3.947-4.645c-1.852,0-2.353,0.859-2.803,1.564l0,0v-1.125
			h-3.374C1095.799,296.592,1095.75,305.75,1095.75,305.75L1095.75,305.75z"/>
	</g>
</g>
<g>
	<polygon fill="#095460" points="1094.65,256 1090,251.349 1091.398,249.952 1094.65,253.206 1101.857,246 1103.254,247.397 	"/>
</g>
<g>
	<polygon fill="#FFFFFF" points="1144.65,256 1140,251.349 1141.398,249.952 1144.65,253.206 1151.857,246 1153.254,247.397 	"/>
</g>
</svg>
