<?xml version="1.0" encoding="utf-8"?>
<!-- Generator: Adobe Illustrator 21.0.2, SVG Export Plug-In . SVG Version: 6.00 Build 0)  -->
<svg version="1.1" id="Layer_1" xmlns="http://www.w3.org/2000/svg" xmlns:xlink="http://www.w3.org/1999/xlink" x="0px" y="0px"
	 viewBox="0 0 280 140" style="enable-background:new 0 0 280 140;" xml:space="preserve">
<style type="text/css">
	.st0{fill:#0E553F;}
	.st1{fill:#B6A269;}
</style>
<g>
	<g>
		<g>
			<path class="st0" d="M118.2,51.1c0,0.5-0.6,0.7-1.8,0.7h-1.6h-1.3c-0.8,0-1.2,0.1-1.4,0.4c-0.1,0.3-0.2,1.1-0.2,2.4v42
				c0,2.6,0,4.1-0.1,4.5c0,0.4-0.2,0.7-0.4,0.7c-0.3,0-0.6-0.3-1-0.8L101,87.3c-5.4-8-12-17.9-19.8-29.9v40.9c0,0.6,0.4,1,1.1,1.2
				c0.7,0.2,2.3,0.3,4.9,0.3c0.6,0,1,0.2,1,0.6c0,0.5-0.6,0.7-1.9,0.7c-0.4,0-1.8-0.1-4.2-0.2c-0.8,0-1.5-0.1-2.3-0.1
				c0,0-0.4,0-1.3,0.1c-0.9,0.1-2.3,0.1-4.1,0.1h-0.7c-1.1,0-1.7-0.2-1.7-0.7c0-0.4,0.5-0.7,1.5-0.7c2.9,0,4.5-0.2,5-0.5
				c0.5-0.3,0.7-1.4,0.7-3.1V60.1c0-4-0.8-6.6-2.5-7.6c-0.8-0.5-2.2-0.7-4.2-0.7c-1.3,0-1.9-0.3-1.9-0.8c0-0.5,0.4-0.7,1.1-0.7
				c1,0,2.2,0,3.7,0.1c1.5,0.1,2.3,0.1,2.4,0.1c0.1,0,0.8,0,2-0.1c1.6,0,3.2-0.1,4.7-0.2L109.9,88V55.4c0-1.5,0-2.4-0.1-2.7
				c0-0.3-0.2-0.6-0.6-0.7c-0.3-0.2-1.5-0.3-3.5-0.3c-1.8,0-2.6-0.2-2.6-0.7c0-0.5,0.6-0.7,1.8-0.7h2.6c0.6,0,1.3,0,2,0
				c0.8,0,1.2,0,1.4,0c0,0,0.5,0,1.3,0c0.8,0,1.5,0,2.2,0h2.3C117.7,50.3,118.2,50.6,118.2,51.1z"/>
			<path class="st0" d="M143.5,93.2c0,0.5-0.4,1.4-1.1,2.6c-0.8,1.2-1.5,2.3-2.3,3c-2.1,2.1-4.9,3.2-8.4,3.2c-4.4,0-8.1-1.6-11-4.8
				c-2.9-3.2-4.4-7.1-4.4-11.8c0-4.9,1.4-8.9,4.2-12.2c2.8-3.3,6.3-4.9,10.5-4.9c3.5,0,6.4,1,8.7,3c2.3,2,3.6,4.6,3.7,7.8
				c-1.6,0.2-3.6,0.3-6.2,0.3H132c-0.3,0-3.3,0.1-8.8,0.2c-0.2,1.6-0.4,3.1-0.4,4.6c0,4.9,0.9,8.7,2.8,11.3c1.9,2.6,4.5,4,7.9,4
				c1.9,0,3.5-0.4,4.7-1.3c1.2-0.9,2.4-2.6,3.8-5c0.2-0.4,0.5-0.6,0.8-0.6C143.3,92.6,143.5,92.8,143.5,93.2z M137.1,78.2
				c-0.2-5.8-2.3-8.8-6.3-8.8c-3.9,0-6.4,2.9-7.4,8.8H137.1z"/>
			<path class="st0" d="M190.7,69.8c0,0.4-0.4,0.6-1.1,0.6c-0.5,0-1,0-1.3,0h-0.6c-1,0-2,1.4-2.9,4.2c-0.5,1.8-1,3.6-1.5,5.5
				l-2.3,7.3c-0.8,2.5-2,6.6-3.7,12.1c-0.4,1.7-0.9,2.5-1.2,2.5c-0.3,0-0.8-0.6-1.3-1.8c-0.5-1.2-1.8-4.7-3.9-10.4
				c-0.5-1.5-1.3-3.7-2.4-6.6c-0.7-1.9-1.2-3.5-1.6-4.7c-1.9,5.4-4.4,12.9-7.4,22.7c-0.2,0.6-0.5,0.9-0.9,0.9c-0.4,0-0.7-0.4-1-1.1
				c-0.1-0.3-0.4-1.2-0.9-2.5l-1.8-4.7c-0.5-1.3-1.4-4.1-2.9-8.6c-1.4-4.4-2.2-7.1-2.5-7.9c-1.4-3.9-2.4-6.1-3-6.7
				c-0.4-0.2-1.2-0.3-2.4-0.3c-1.1,0-1.7-0.2-1.7-0.7c0-0.3,0.3-0.5,0.8-0.5h0.6c0,0,0.9,0,2.6,0c1.6,0,3.4,0,5.3,0
				c0.8,0,1.6,0,2.4,0c0.8,0,1.3,0,1.5,0h0.9c0.7,0,1,0.2,1,0.6c0,0.4-0.2,0.7-0.7,0.7H155c-1.2,0-1.8,0.2-1.8,0.7
				c0,0.4,0.5,2,1.4,4.6c1.6,4.6,3.5,10.3,5.7,17.2c2.1-6.8,4-12.7,5.7-17.6c0.3-0.7,0.7-1.9,1.2-3.5c0.5-1.8,1-2.6,1.5-2.6
				s1,0.8,1.5,2.4c0.9,2.9,2.8,8.4,5.7,16.5c0.4,1.1,0.9,2.7,1.7,4.8l6.6-22.1c0-0.3-0.3-0.4-0.9-0.4c-0.2,0-0.9,0-2.1,0
				c-0.5,0-0.8-0.2-0.8-0.6c0-0.4,0.3-0.6,1-0.6h0.7h7.7C190.4,69.2,190.7,69.4,190.7,69.8z"/>
			<path class="st0" d="M211.4,96.8c0,0.4-0.6,1.2-1.8,2.3c-2.1,1.9-4.6,2.9-7.5,2.9c-2.7,0-4.7-0.7-6.1-2c-0.8-0.8-1.2-3.1-1.2-6.9
				V71.4c0-0.5-0.3-0.8-0.8-0.8h-2.8c-1.1,0-1.6-0.2-1.6-0.5c0-0.3,0.3-0.5,0.8-0.6c3.8-0.3,6.7-2.2,8.9-5.6
				c0.3-0.4,0.7-0.7,1.1-0.7c0.3,0,0.5,0.2,0.5,0.5V64c0,0.2,0,0.7,0,1.2c0,2,0.1,3.4,0.3,3.9c0.4,0.1,1.2,0.1,2.2,0.1
				c2.7,0,4.5-0.1,5.3-0.4c0.2,0,0.4-0.1,0.5-0.1c0.4,0,0.6,0.2,0.6,0.6c0,0.7-2,1.1-5.9,1.1c-0.7,0-1.7,0-3,0v13.5
				c0,6.8,0.2,11.1,0.5,12.8c0.3,1.7,1.5,2.6,3.4,2.6c1.6,0,3.4-0.9,5.4-2.7c0.2-0.2,0.4-0.4,0.7-0.4
				C211.2,96.4,211.4,96.6,211.4,96.8z"/>
			<path class="st0" d="M242.1,85.3c0,4.7-1.4,8.7-4.3,11.9c-2.9,3.2-6.5,4.8-10.7,4.8c-4.4,0-8.1-1.6-11.1-4.8
				c-3-3.2-4.5-7.2-4.5-11.9c0-4.9,1.4-8.9,4.3-12.1c2.9-3.2,6.5-4.8,10.9-4.8c4.4,0,8.1,1.6,11,4.9
				C240.6,76.5,242.1,80.5,242.1,85.3z M235.5,85.3c0-5.4-0.8-9.5-2.5-12.5c-1.2-2.2-3.3-3.3-6.1-3.3c-2.7,0-4.9,1.4-6.4,4.2
				c-1.5,2.8-2.3,6.7-2.3,11.7c0,4.9,0.8,8.8,2.4,11.5c1.6,2.8,3.9,4.1,6.8,4.1c2.2,0,3.9-0.9,5-2.6
				C234.4,95.2,235.5,90.8,235.5,85.3z"/>
			<path class="st0" d="M277.6,100.7c0,0.4-0.4,0.5-1.1,0.5h-0.9c-0.9,0-2.1,0-3.6,0c-4.8,0-7.6,0-8.5,0h-0.5c-0.6,0-1-0.2-1-0.5
				c0-0.2,0.1-0.4,0.4-0.4c0.3,0,1.2-0.1,2.8-0.1c0.9,0,1.5-0.2,1.6-0.4c0.1-0.2,0.2-1,0.2-2.4v-14c0-5.3-0.2-8.5-0.6-9.5
				c-0.8-2.2-2.5-3.3-5-3.3c-2.4,0-4.5,1.1-6.1,3.2c-0.5,0.6-0.7,1.5-0.7,2.6v22.7c0,0.6,0.5,0.9,1.6,0.9l2.2,0.1
				c0.5,0,0.7,0.2,0.7,0.5c0,0.3-0.3,0.5-0.9,0.5h-1.2c-1.1,0-2.8,0-5.1,0c-0.5,0-1.7,0-3.5,0c-1.8,0-2.8,0-3.1,0h-0.4
				c-0.7,0-1.1-0.1-1.1-0.4c0-0.3,0.4-0.5,1.3-0.6c0.6,0,1.2,0,1.8,0c0.7,0,1.2-0.2,1.3-0.5l0.2-1.1V82.7c0-5.5,0-8.6-0.1-9.2
				c-0.1-0.6-0.7-0.9-1.8-0.9c-0.3,0-0.9,0-1.8,0h-0.4c-1,0-1.5-0.2-1.5-0.5c0-0.5,0.5-0.7,1.5-0.7c1.5,0,3-0.3,4.8-0.8
				c1.7-0.5,2.9-1,3.6-1.7c0.4-0.4,0.8-0.6,1-0.6c0.3,0,0.5,0.5,0.5,1.4v3.5c2.5-3.3,5.8-4.9,9.8-4.9c3.5,0,6,1.3,7.6,3.9
				c0.9,1.5,1.3,4.2,1.3,8.3v16.7c0,1.6,0.1,2.4,0.2,2.6c0.3,0.3,1,0.4,2.1,0.4c0.1,0,0.4,0,0.8,0h0.5
				C277.4,100.2,277.6,100.4,277.6,100.7z"/>
			<path class="st0" d="M120.6,121.5c0,0,0,0.2-0.1,0.8c-0.1,1.2-0.1,2.3-0.1,3.4c0,0.1,0,0.4,0.1,0.7c0,0.4,0.1,0.8,0.1,1.3v0.3
				c0,0.3-0.1,0.4-0.2,0.4c-0.2,0-0.3-0.1-0.4-0.5c-0.3-0.7-0.6-1.1-0.8-1.3c-1.4,1.3-3.2,1.9-5.2,1.9c-2.9,0-5.4-1-7.3-3.1
				c-1.9-2.1-2.9-4.6-2.9-7.8c0-3.1,0.9-5.7,2.7-7.7c1.8-2,4.1-3,6.9-3c1,0,1.8,0.1,2.5,0.3c0.6,0.2,1.4,0.5,2.3,1
				c0.4,0.3,0.8,0.4,1,0.4c0.2,0,0.4-0.2,0.5-0.5c0.3-0.6,0.5-0.8,0.6-0.8c0.2,0,0.2,0.1,0.2,0.2c0,0.1,0,0.2-0.1,0.4
				c-0.2,1-0.3,2.8-0.3,5.4c0,0.4,0,0.6-0.1,0.7c-0.1,0.1-0.1,0.1-0.2,0.1c-0.2,0-0.3-0.2-0.4-0.6c-0.3-1.6-0.6-2.8-1.1-3.6
				c-1-1.6-2.5-2.4-4.6-2.4c-1.6,0-2.9,0.5-3.8,1.6c-1.7,1.9-2.6,4.8-2.6,8.5c0,3.3,0.7,5.9,2.1,7.8c1.2,1.6,2.8,2.4,4.9,2.4
				c1,0,2-0.3,2.9-0.8c0.9-0.5,1.5-1.2,2-2.1c0.5-1,0.9-2.1,1.1-3.3c0.1-0.5,0.2-0.7,0.4-0.7C120.5,121,120.6,121.2,120.6,121.5z"/>
			<path class="st0" d="M135.4,126.8c0,0.3-0.4,0.7-1.1,1.1c-0.7,0.4-1.4,0.6-2,0.6c-1.4,0-2.1-0.7-2.2-2.1
				c-0.8,1.5-1.9,2.2-3.5,2.2c-0.9,0-1.6-0.3-2.1-0.8c-0.6-0.5-0.8-1.2-0.8-2c0-1.6,1-2.9,2.9-3.9c0.7-0.3,1.8-0.6,3.5-1v-0.8
				c0-1.8-0.1-2.9-0.3-3.5c-0.3-1-1-1.5-2.2-1.5c-0.7,0-1.3,0.2-1.8,0.6s-0.7,0.9-0.7,1.4c0,0.2,0.1,0.2,0.4,0.2
				c0.3,0,0.5,0.1,0.7,0.4c0.2,0.2,0.3,0.5,0.3,0.8c0,0.9-0.4,1.3-1.3,1.3c-0.5,0-0.8-0.2-1.1-0.5c-0.3-0.3-0.5-0.7-0.5-1.2
				c0-0.9,0.4-1.8,1.1-2.4c0.8-0.7,2-1.1,3.4-1.1c2.2,0,3.6,0.6,4.1,1.8c0.2,0.5,0.3,1.4,0.3,2.7v5.6c0,0.9,0,1.5,0,1.6
				c0.1,0.7,0.4,1.1,0.9,1.1c0.6,0,1-0.2,1.4-0.6c0.2-0.2,0.4-0.3,0.5-0.3C135.4,126.6,135.4,126.7,135.4,126.8z M130.1,123.6v-2.2
				c-1.5,0.3-2.5,0.8-3.2,1.3c-0.6,0.6-1,1.3-1,2.2c0,0.6,0.2,1.2,0.5,1.6c0.4,0.4,0.8,0.6,1.4,0.6c0.8,0,1.5-0.5,2-1.4
				C130.1,125.5,130.1,124.8,130.1,123.6z"/>
			<path class="st0" d="M145.9,116.8c0,0.5-0.1,0.8-0.4,1.1s-0.6,0.5-1.1,0.5c-0.4,0-0.7-0.1-0.9-0.3c-0.2-0.2-0.4-0.5-0.4-0.8
				c0-0.3,0.1-0.5,0.3-0.7c0.2-0.2,0.3-0.3,0.3-0.4c0-0.3-0.2-0.5-0.7-0.5c-0.6,0-1,0.3-1.4,1c-0.5,0.8-0.7,2.3-0.7,4.5v5.9
				c0,0.2,0.1,0.4,0.3,0.4c0.2,0.1,0.7,0.1,1.5,0.1c0.2,0,0.3,0.1,0.3,0.2c0,0.1-0.1,0.2-0.4,0.2c-0.5,0-0.9,0-1.3,0s-1.2,0-2.3,0
				c-0.6,0-1,0-1.3,0c-0.3,0-0.6,0-1,0c-0.3,0-0.5-0.1-0.5-0.2c0-0.1,0.1-0.2,0.4-0.2h0.4c0.7,0,1.1-0.1,1.2-0.2
				c0-0.1,0.1-0.5,0.1-1.1v-8.3c0-1.1-0.2-1.7-0.5-1.9c-0.3-0.2-0.9-0.3-1.6-0.3c-0.2,0-0.4-0.1-0.4-0.2s0.1-0.2,0.3-0.2h0.2
				c0.3,0,0.6,0,0.9,0c0.3,0,0.4,0,0.4,0c0.7,0,1.6-0.2,2.5-0.6l0.4-0.2l0.2-0.1c0.1,0.5,0.1,1,0.1,1.4v0.6c0.6-1.4,1.5-2,2.7-2
				c0.6,0,1.2,0.2,1.6,0.6C145.7,115.7,145.9,116.2,145.9,116.8z"/>
			<path class="st0" d="M158.5,124.9c0,0.2-0.2,0.6-0.5,1.1c-0.3,0.5-0.6,0.9-0.9,1.2c-0.9,0.9-2,1.3-3.5,1.3c-1.8,0-3.3-0.7-4.5-2
				c-1.2-1.3-1.8-2.9-1.8-4.8c0-2,0.6-3.7,1.7-5c1.2-1.3,2.6-2,4.3-2c1.4,0,2.6,0.4,3.6,1.2c1,0.8,1.5,1.9,1.5,3.2
				c-0.6,0.1-1.5,0.1-2.6,0.1h-2.1c-0.1,0-1.3,0-3.6,0.1c-0.1,0.7-0.2,1.3-0.2,1.9c0,2,0.4,3.6,1.2,4.7c0.8,1.1,1.9,1.6,3.3,1.6
				c0.8,0,1.4-0.2,1.9-0.5c0.5-0.4,1-1.1,1.6-2.1c0.1-0.2,0.2-0.2,0.3-0.2C158.4,124.7,158.5,124.8,158.5,124.9z M155.9,118.8
				c-0.1-2.4-0.9-3.6-2.6-3.6c-1.6,0-2.6,1.2-3,3.6H155.9z"/>
			<path class="st0" d="M184.4,121.5c0,0,0,0.2-0.1,0.8c-0.1,1.2-0.1,2.3-0.1,3.4c0,0.1,0,0.4,0.1,0.7c0,0.4,0.1,0.8,0.1,1.3v0.3
				c0,0.3-0.1,0.4-0.2,0.4c-0.2,0-0.3-0.1-0.4-0.5c-0.3-0.7-0.6-1.1-0.8-1.3c-1.4,1.3-3.2,1.9-5.2,1.9c-2.9,0-5.4-1-7.3-3.1
				c-1.9-2.1-2.9-4.6-2.9-7.8c0-3.1,0.9-5.7,2.7-7.7c1.8-2,4.1-3,6.9-3c1,0,1.8,0.1,2.5,0.3c0.6,0.2,1.4,0.5,2.3,1
				c0.4,0.3,0.8,0.4,1,0.4c0.2,0,0.4-0.2,0.5-0.5c0.3-0.6,0.5-0.8,0.6-0.8c0.2,0,0.2,0.1,0.2,0.2c0,0.1,0,0.2-0.1,0.4
				c-0.2,1-0.3,2.8-0.3,5.4c0,0.4,0,0.6-0.1,0.7c-0.1,0.1-0.1,0.1-0.2,0.1c-0.2,0-0.3-0.2-0.4-0.6c-0.3-1.6-0.6-2.8-1.1-3.6
				c-1-1.6-2.5-2.4-4.6-2.4c-1.6,0-2.9,0.5-3.8,1.6c-1.7,1.9-2.6,4.8-2.6,8.5c0,3.3,0.7,5.9,2.1,7.8c1.2,1.6,2.8,2.4,4.9,2.4
				c1,0,2-0.3,2.9-0.8c0.9-0.5,1.5-1.2,2-2.1c0.5-1,0.9-2.1,1.1-3.3c0.1-0.5,0.2-0.7,0.4-0.7C184.3,121,184.4,121.2,184.4,121.5z"/>
			<path class="st0" d="M198.4,124.9c0,0.2-0.2,0.6-0.5,1.1c-0.3,0.5-0.6,0.9-0.9,1.2c-0.9,0.9-2,1.3-3.5,1.3c-1.8,0-3.3-0.7-4.5-2
				c-1.2-1.3-1.8-2.9-1.8-4.8c0-2,0.6-3.7,1.7-5c1.2-1.3,2.6-2,4.3-2c1.4,0,2.6,0.4,3.6,1.2c1,0.8,1.5,1.9,1.5,3.2
				c-0.6,0.1-1.5,0.1-2.6,0.1h-2.1c-0.1,0-1.3,0-3.6,0.1c-0.1,0.7-0.2,1.3-0.2,1.9c0,2,0.4,3.6,1.2,4.7c0.8,1.1,1.9,1.6,3.3,1.6
				c0.8,0,1.4-0.2,1.9-0.5c0.5-0.4,1-1.1,1.6-2.1c0.1-0.2,0.2-0.2,0.3-0.2C198.4,124.7,198.4,124.8,198.4,124.9z M195.8,118.8
				c-0.1-2.4-0.9-3.6-2.6-3.6c-1.6,0-2.6,1.2-3,3.6H195.8z"/>
			<path class="st0" d="M214.1,128c0,0.1-0.1,0.2-0.5,0.2h-0.4c-0.4,0-0.9,0-1.5,0c-2,0-3.1,0-3.5,0h-0.2c-0.3,0-0.4-0.1-0.4-0.2
				c0-0.1,0.1-0.2,0.2-0.2c0.1,0,0.5,0,1.2-0.1c0.4,0,0.6-0.1,0.7-0.2c0.1-0.1,0.1-0.4,0.1-1v-5.8c0-2.2-0.1-3.5-0.2-3.9
				c-0.3-0.9-1-1.3-2-1.3c-1,0-1.8,0.4-2.5,1.3c-0.2,0.3-0.3,0.6-0.3,1.1v9.4c0,0.2,0.2,0.4,0.6,0.4l0.9,0c0.2,0,0.3,0.1,0.3,0.2
				c0,0.1-0.1,0.2-0.4,0.2h-0.5c-0.4,0-1.1,0-2.1,0c-0.2,0-0.7,0-1.4,0c-0.7,0-1.2,0-1.3,0h-0.2c-0.3,0-0.5-0.1-0.5-0.2
				s0.2-0.2,0.5-0.2c0.3,0,0.5,0,0.8,0c0.3,0,0.5-0.1,0.5-0.2l0.1-0.4v-6.5c0-2.3,0-3.5-0.1-3.8c0-0.2-0.3-0.4-0.8-0.4
				c-0.1,0-0.4,0-0.7,0h-0.2c-0.4,0-0.6-0.1-0.6-0.2c0-0.2,0.2-0.3,0.6-0.3c0.6,0,1.3-0.1,2-0.3c0.7-0.2,1.2-0.4,1.5-0.7
				c0.2-0.2,0.3-0.2,0.4-0.2c0.1,0,0.2,0.2,0.2,0.6v1.4c1-1.3,2.4-2,4-2c1.4,0,2.5,0.5,3.1,1.6c0.4,0.6,0.5,1.7,0.5,3.4v6.9
				c0,0.6,0,1,0.1,1.1c0.1,0.1,0.4,0.2,0.9,0.2c0.1,0,0.2,0,0.3,0h0.2C214,127.8,214.1,127.9,214.1,128z"/>
			<path class="st0" d="M223.4,126.4c0,0.2-0.3,0.5-0.8,1c-0.9,0.8-1.9,1.2-3.1,1.2c-1.1,0-1.9-0.3-2.5-0.8
				c-0.3-0.3-0.5-1.3-0.5-2.8v-8.9c0-0.2-0.1-0.3-0.3-0.3h-1.1c-0.4,0-0.7-0.1-0.7-0.2s0.1-0.2,0.3-0.2c1.6-0.1,2.8-0.9,3.6-2.3
				c0.1-0.2,0.3-0.3,0.4-0.3c0.1,0,0.2,0.1,0.2,0.2v0.1c0,0.1,0,0.3,0,0.5c0,0.8,0,1.4,0.1,1.6c0.2,0,0.5,0.1,0.9,0.1
				c1.1,0,1.8,0,2.2-0.2c0.1,0,0.2,0,0.2,0c0.2,0,0.2,0.1,0.2,0.3c0,0.3-0.8,0.4-2.4,0.4c-0.3,0-0.7,0-1.2,0v5.6
				c0,2.8,0.1,4.6,0.2,5.3c0.1,0.7,0.6,1.1,1.4,1.1c0.7,0,1.4-0.4,2.2-1.1c0.1-0.1,0.2-0.2,0.3-0.2
				C223.4,126.3,223.4,126.3,223.4,126.4z"/>
			<path class="st0" d="M235.6,124.9c0,0.2-0.2,0.6-0.5,1.1c-0.3,0.5-0.6,0.9-0.9,1.2c-0.9,0.9-2,1.3-3.5,1.3c-1.8,0-3.3-0.7-4.5-2
				c-1.2-1.3-1.8-2.9-1.8-4.8c0-2,0.6-3.7,1.7-5c1.2-1.3,2.6-2,4.3-2c1.4,0,2.6,0.4,3.6,1.2c1,0.8,1.5,1.9,1.5,3.2
				c-0.6,0.1-1.5,0.1-2.6,0.1h-2.1c-0.1,0-1.3,0-3.6,0.1c-0.1,0.7-0.2,1.3-0.2,1.9c0,2,0.4,3.6,1.2,4.7c0.8,1.1,1.9,1.6,3.3,1.6
				c0.8,0,1.4-0.2,1.9-0.5c0.5-0.4,1-1.1,1.6-2.1c0.1-0.2,0.2-0.2,0.3-0.2C235.5,124.7,235.6,124.8,235.6,124.9z M233,118.8
				c-0.1-2.4-0.9-3.6-2.6-3.6c-1.6,0-2.6,1.2-3,3.6H233z"/>
			<path class="st0" d="M246.8,116.8c0,0.5-0.1,0.8-0.4,1.1s-0.6,0.5-1.1,0.5c-0.4,0-0.7-0.1-0.9-0.3c-0.2-0.2-0.4-0.5-0.4-0.8
				c0-0.3,0.1-0.5,0.3-0.7c0.2-0.2,0.3-0.3,0.3-0.4c0-0.3-0.2-0.5-0.7-0.5c-0.6,0-1,0.3-1.4,1c-0.5,0.8-0.7,2.3-0.7,4.5v5.9
				c0,0.2,0.1,0.4,0.3,0.4c0.2,0.1,0.7,0.1,1.5,0.1c0.2,0,0.3,0.1,0.3,0.2c0,0.1-0.1,0.2-0.4,0.2c-0.5,0-0.9,0-1.3,0s-1.2,0-2.3,0
				c-0.6,0-1,0-1.3,0s-0.6,0-1,0c-0.3,0-0.5-0.1-0.5-0.2c0-0.1,0.1-0.2,0.4-0.2h0.4c0.7,0,1.1-0.1,1.2-0.2c0-0.1,0.1-0.5,0.1-1.1
				v-8.3c0-1.1-0.2-1.7-0.5-1.9c-0.3-0.2-0.9-0.3-1.6-0.3c-0.2,0-0.4-0.1-0.4-0.2s0.1-0.2,0.3-0.2h0.2c0.3,0,0.6,0,0.9,0
				c0.3,0,0.4,0,0.4,0c0.7,0,1.6-0.2,2.5-0.6l0.4-0.2l0.2-0.1c0.1,0.5,0.1,1,0.1,1.4v0.6c0.6-1.4,1.5-2,2.7-2c0.6,0,1.2,0.2,1.6,0.6
				C246.6,115.7,246.8,116.2,246.8,116.8z"/>
		</g>
	</g>
	<g>
		<g>
			<path class="st0" d="M278.6,52.6c0,0.7-0.2,1.2-0.7,1.7c-0.5,0.5-1,0.7-1.7,0.7c-0.7,0-1.2-0.2-1.7-0.7c-0.5-0.5-0.7-1-0.7-1.7
				c0-0.6,0.2-1.2,0.7-1.7c0.5-0.5,1-0.7,1.7-0.7c0.6,0,1.2,0.2,1.6,0.7C278.4,51.4,278.6,52,278.6,52.6z M278.4,52.6
				c0-0.6-0.2-1.1-0.6-1.5c-0.4-0.4-0.9-0.6-1.5-0.6c-0.6,0-1.1,0.2-1.5,0.6c-0.4,0.4-0.6,0.9-0.6,1.5c0,0.6,0.2,1.1,0.6,1.5
				c0.4,0.4,0.9,0.6,1.5,0.6c0.6,0,1.1-0.2,1.5-0.6C278.2,53.7,278.4,53.2,278.4,52.6z M277.5,53.8c0,0.1-0.1,0.2-0.3,0.2
				c-0.2,0-0.4-0.1-0.5-0.3c-0.1-0.1-0.1-0.1-0.1-0.2c0-0.1,0-0.2-0.1-0.5c0-0.2-0.1-0.3-0.2-0.4c-0.1-0.1-0.2-0.1-0.4-0.1v1.1
				c0,0.1,0,0.2,0,0.2c0,0,0.1,0,0.2,0c0.1,0,0.1,0,0.1,0.1c0,0,0,0.1-0.1,0.1h0c0,0-0.2,0-0.4,0c0,0-0.1,0-0.1,0s-0.1,0-0.2,0h-0.2
				c-0.1,0-0.1,0-0.1-0.1c0,0,0-0.1,0.1-0.1s0.2,0,0.2,0c0,0,0-0.1,0-0.2v-2.1c0-0.1,0-0.2,0-0.2c0,0-0.1,0-0.2,0h0c0,0,0,0,0,0
				c-0.1,0-0.1,0-0.1,0c0,0,0,0,0.1,0h0.1c0.1,0,0.2,0,0.5,0h0.3c0,0,0.1,0,0.1,0c0.1,0,0.1,0,0.1,0c0.3,0,0.5,0.1,0.6,0.2
				c0.2,0.1,0.2,0.3,0.2,0.5c0,0.2-0.1,0.4-0.3,0.5c-0.1,0.1-0.3,0.1-0.5,0.1c0,0,0,0,0,0c0,0,0,0,0,0c0.3,0,0.5,0.1,0.6,0.3
				c0.1,0.2,0.2,0.4,0.2,0.8c0,0.2,0.1,0.3,0.2,0.3c0,0,0,0,0,0c0,0,0,0,0,0c0,0,0,0,0-0.1c0-0.1,0-0.1,0.1-0.1
				C277.4,53.7,277.5,53.7,277.5,53.8z M276.6,51.9c0-0.4-0.2-0.5-0.5-0.5c-0.1,0-0.2,0-0.2,0c0,0,0,0.1,0,0.1v1
				C276.3,52.5,276.6,52.3,276.6,51.9z"/>
		</g>
	</g>
	<g>
		<path id="XMLID_127_" class="st1" d="M61.1,75.3c-0.7,0.4-1.4,0.7-2.1,0.9c-0.7,0.3-1.4,0.4-2.1,0.7c0.6-0.4,1.2-0.8,1.8-1.2
			c1.2-0.8,2.3-1.7,3-3c0.1-0.2,0.1-0.4,0.2-0.5c0,0-0.1,0-0.1-0.1c-0.7,0.7-1.3,1.6-2.1,2.2c-0.8,0.7-1.6,1.2-2.4,1.8
			c0-0.1-0.1-0.1-0.1-0.2c1.4-1.9,2.7-3.7,4.1-5.6c0,0-0.1-0.1-0.1-0.1c-0.1,0.1-0.3,0.2-0.4,0.3c-1,1.2-1.9,2.3-2.9,3.5
			c-0.8,1-1.3,2.2-2.4,2.8c-0.7,0.4-1.3,0.8-2.1,1.2c0.6-1.1,1.2-2,1.7-2.9c0.6-1.1,1.2-2.1,1.8-3.2c0.1-0.1,0.2-0.2,0.4-0.3
			c0.9-0.5,1.9-1,2.6-1.8c1.3-1.3,2.1-2.9,2.6-4.7c0-0.2,0-0.3,0-0.5c-0.1,0-0.1,0-0.2-0.1c-1,2.4-2.1,4.9-4.7,6.1
			c1.3-1.7,1.8-3.6,2.4-5.6c0.1-0.2,0-0.4,0-0.6c-0.1,0-0.2,0-0.2,0c-0.4,1.2-0.7,2.5-1.3,3.7c-0.5,1.2-1.3,2.3-1.9,3.4
			c-0.1,0-0.1-0.1-0.2-0.1c-0.1-3.1,0.6-6.1,1.6-9.1c-0.4,0.6-0.7,1.2-0.9,1.8c-0.8,2.4-1.3,4.8-1.2,7.3c0,0.3,0,0.7-0.1,1
			c-0.4,0.9-0.9,1.8-1.4,2.7c-0.3,0.5-0.5,0.9-0.8,1.4c-0.1,0-0.1,0-0.2-0.1c0.2-1.4,0.4-2.8,0.7-4.2c0.2-1.1,0.6-2.2,0.9-3.3
			c0-0.1,0-0.2,0-0.4c0,0-0.1,0-0.1,0c-0.7,0.7-0.5,1.7-0.9,2.5c0,0-0.1,0-0.1,0c0.1-1.4,0.3-2.8,0.4-4.2c-0.2,0.2-0.3,0.4-0.3,0.6
			c-0.2,0.9-0.4,1.8-0.4,2.7c0,2.2-0.2,4.3-0.5,6.5c-0.1,0.8-0.3,1.4-1,2c-0.8,0.7-1.5,1.4-2.2,2.2c-0.2,0.2-0.4,0.4-0.6,0.7
			c0-0.2,0-0.3,0.1-0.3c0.4-1.4,0.8-2.9,1.2-4.3c0.4-1.3,0.7-2.5,1.1-3.8c0.5-1.6,1-3.1,1-4.8c0-0.9,0.3-1.7,0.9-2.4
			c0.9-1.2,1.8-2.4,2.4-3.8c0.6-1.4,0.9-3.1,1.4-4.6c0-0.1-0.1-0.2-0.1-0.4c-0.1,0.1-0.2,0.2-0.3,0.3c-0.2,0.6-0.3,1.2-0.5,1.8
			c-0.3,1.4-0.7,2.7-1.5,4c-0.6,1-1.3,1.9-2,2.9c0,0-0.1,0-0.1-0.1c0.1-0.4,0.3-0.9,0.4-1.3c0.4-1.3,0.9-2.7,1.3-4
			c0-0.1-0.1-0.3-0.2-0.5c-0.1,0.1-0.2,0.3-0.3,0.4c-0.2,0.6-0.3,1.3-0.5,1.9c-0.3,1-0.8,2-1,3c-0.3,1.3-0.3,2.7-0.4,4
			c-0.1,0.8-0.3,1.6-0.5,2.4c-0.1,0-0.1,0-0.2,0c0-0.3,0-0.6,0-0.8c-0.1-1.4-0.2-2.8-0.3-4.2c-0.1-0.9-0.2-1.9-0.2-2.8
			c-0.1-1.9,0.1-3.8,0.5-5.6c0-0.1-0.1-0.3-0.1-0.4c-0.1,0.1-0.3,0.2-0.3,0.3c-0.1,0.1-0.1,0.2-0.1,0.3c-0.1,1.3-0.4,2.6-0.4,3.9
			c-0.1,1.4,0.1,2.8,0.1,4.1c-0.7-0.5-1.1-1.1-1.3-2.2c-0.4-1.8-0.2-3.6-0.2-5.4c0-0.5,0-1,0-1.5c0,0-0.1,0-0.1,0
			c0,0.1-0.1,0.1-0.1,0.2c-0.1,1.6-0.2,3.2-0.2,4.9c-0.1,1.9,0.4,3.5,1.9,4.8c0.2,0.2,0.4,0.5,0.4,0.8c0.1,0.5,0.1,1,0.1,1.5
			c0.1,1.4-0.2,2.8-0.6,4.2c-0.6,2.4-1.2,4.8-1.9,7.1c0,0.1-0.1,0.1-0.1,0.2c0-0.4-0.1-0.7-0.1-1c-0.3-2.9,0.1-5.8,0.3-8.6
			c0.1-1.1,0.3-2.2,0.4-3.2c0-0.2-0.1-0.5-0.1-0.7c-0.4,0.1-0.3,0.5-0.3,0.8c-0.1,0.6-0.1,1.2-0.2,1.8c-0.1,0-0.1,0-0.2,0
			c-0.1-1.2-0.2-2.4-0.3-3.6c0,0-0.1,0-0.1,0c0,0.1-0.1,0.2-0.1,0.3c0,0.6-0.1,1.2,0,1.9c0.1,0.7,0.3,1.5,0.3,2.2
			c0,1.8-0.2,3.6-0.2,5.4c0,1.5-0.1,3,0.1,4.5c0.1,1.2,0.2,2.3-0.3,3.4c-0.5,1.4-1,2.7-1.5,4.1C45,91,44.2,93.1,42.9,95
			c-0.1,0.1-0.1,0.2-0.3,0.4c0-0.5,0-0.9,0.1-1.2c0-0.9,0.1-1.7,0.5-2.5c0.3-0.5,0.4-1,0.5-1.6c0.4-1.7,0.9-3.3,1.8-4.8
			c0.5-0.8,0.7-1.7,1-2.6c0.1-0.2,0-0.4,0-0.5c-0.1,0-0.1,0-0.2,0c-0.5,1.5-1.1,2.9-2,4.2c0.3-1,0.5-2.1,0.8-3.1
			c-0.2,0.1-0.3,0.3-0.4,0.5c-0.3,1.1-0.6,2.1-0.8,3.2c-0.3,1.3-0.5,2.5-0.8,3.8c-0.1,0.2-0.2,0.5-0.2,0.7c-0.1-0.4-0.1-0.7-0.1-1
			c-0.3-1.5-0.2-3,0.2-4.5c0.4-1.6,1-3.2,2.2-4.4c0.7-0.8,1.2-1.7,1.3-2.8c0-0.2,0-0.5,0-0.8c-0.1,0-0.2,0-0.2-0.1
			c-0.3,1.5-0.8,2.9-2,3.9c0.1-1.1,0.1-2.2,0.2-3.3c0-0.6-0.1-1.1,0.5-1.6c0.8-0.8,1-1.9,1.2-3c0.5-2.7,0-5.3-0.3-7.9
			c0-0.1-0.1-0.2-0.2-0.2c-0.1,0.1-0.2,0.1-0.2,0.2c0,0.3,0,0.6,0,0.9c0.3,1.9,0.5,3.8,0.4,5.7c-0.1,1.3-0.2,2.6-1,3.8
			c-0.1,0.1-0.2,0.3-0.4,0.5c0-0.5-0.1-0.8-0.1-1.1c-0.1-2-0.6-3.9-0.6-5.9c0-0.1-0.1-0.2-0.2-0.3c-0.1,0.1-0.2,0.2-0.2,0.4
			c0,0.9,0.1,1.9,0.2,2.8c0,0.5,0.1,1,0.2,1.5c-0.8-0.5-1.3-1.1-1.4-1.9c-0.3-1.4-0.4-2.8-0.6-4.2c-0.1-0.5-0.1-1.1-0.2-1.6
			c0,0-0.1,0-0.1,0c0,0.2-0.1,0.5-0.1,0.7c0.1,1.3,0.1,2.5,0.2,3.8c0.1,1.6,0.7,2.9,2.1,3.8c0.1,0.1,0.2,0.3,0.2,0.5
			c0.2,2.2,0.2,4.4-0.1,6.5c0,0.1-0.1,0.3-0.1,0.4c-0.1,0-0.1,0-0.2,0c-0.2-1.8-0.3-3.5-0.5-5.3c-0.1,0.1-0.2,0.1-0.2,0.2
			c0,0.1,0,0.2,0,0.2c0,1.9-0.1,3.8,0.5,5.7c0.1,0.2,0.1,0.4,0,0.6c-0.2,0.9-0.5,1.7-0.7,2.6c0,0.1-0.1,0.3-0.2,0.4c0,0-0.1,0-0.1,0
			c-0.3-1.8-0.6-3.7-0.8-5.5c-0.1-1.6-0.1-3.1-0.1-4.7c0-0.1-0.1-0.3-0.2-0.4c-0.1,0.1-0.2,0.3-0.2,0.4c0,1.6,0,3.1,0.1,4.7
			c0,0.6,0.1,1.3,0.2,1.9c-0.1-0.1-0.2-0.2-0.3-0.3C40.2,81.2,40,80,40,78.7c0-2-0.1-4-0.1-6c0-0.2-0.1-0.4-0.1-0.6
			c-0.1,0-0.1,0-0.2,0c0,0.3-0.1,0.6-0.1,0.8c0,1.7,0.1,3.5,0.2,5.2c0,0.1,0,0.2,0,0.3c-1-2.1-1.3-4.3-1.6-6.5
			c-0.1,0.1-0.1,0.2-0.1,0.3c-0.1,1.4,0.1,2.7,0.5,4c0.4,1.3,0.8,2.5,1.2,3.8c0.4,1.2,0.7,2.3,1.5,3.4c0.2,0.3,0.4,0.7,0.4,1.1
			c0.3,1.9,0.6,3.8,0.8,5.7c0,0.3,0,0.7,0,1.1c-0.5-1-1-2-1.5-3c-0.5-1.1-0.9-2.2-1-3.4c0-1-0.2-1.9-0.3-2.9c0-0.2-0.2-0.4-0.3-0.6
			c-0.1,0-0.1,0-0.2,0.1c0.2,1.5,0.4,3,0.6,4.4c0,0-0.1,0-0.1,0c-1.2-1.8-1.1-4-2.1-5.8c0.1,1,0.3,1.9,0.5,2.9
			c0.3,1.3,0.6,2.5,1.4,3.5c0.3,0.4,0.5,0.9,0.8,1.3c0.4,0.7,0.7,1.5,1,2.2c0.6,1.4,1.4,2.7,1.1,4.3c-0.1,0.5-0.1,1.1-0.1,1.6
			c0,0.2-0.1,0.4-0.2,0.6c-1.2,1.7-2.1,3.5-2.9,5.4c-0.6,1.4-1,2.8-1.4,4.2c-0.2,0.5-0.2,1-0.3,1.5c-0.1-0.1-0.1-0.2-0.1-0.3
			c-0.1-1.4-0.2-2.7-0.3-4.1c-0.2-2.1-0.5-4.2-0.5-6.3c-0.1-4.4,0-8.8-0.3-13.2c-0.2-3.5-0.1-7.1-0.1-10.7c0-2.2,0.6-4.3,1.5-6.4
			c0.6-1.2,1.3-2.3,1.9-3.5c1.5-2.9,2.7-5.9,3.8-9c0.8-2.1,1.3-4.2,1.8-6.3c0.1-0.4,0.3-0.6,0.6-0.7c0.4-0.2,0.8-0.5,1.1-0.8
			c1.5-1.5,3-3.1,4.4-4.7c0.4-0.5,0.9-0.7,1.5-0.9c1.2-0.3,2.5-0.5,3.7-0.9c2.1-0.7,4-1.9,5.4-3.6c0.1-0.2,0.2-0.4,0.3-0.6
			c0,0-0.1,0-0.1-0.1c-0.9,0.8-1.8,1.7-2.8,2.3c-1,0.7-2.1,1.3-3.3,1.6c1.8-1.6,3-3.8,5.1-5.1c-0.1,0-0.2,0-0.3,0
			c-1,0.5-1.9,1.1-2.6,2c-0.6,0.8-1.4,1.5-2,2.2c-0.8,0.9-1.8,1.3-2.9,1.5c-0.3,0.1-0.6,0.1-1,0.2c0.7-1.1,1.3-2.2,1.9-3.3
			c0.3-0.5,0.6-0.9,1.1-1.2c0.5-0.3,1.1-0.6,1.6-1.1c0.5-0.4,1.1-0.7,1.8-0.8c0.8-0.2,1.5-0.6,2.1-1.3c0.5-0.6,1-1.3,1.5-2
			c0.3-0.5,0.6-1,0.9-1.5c0,0-0.1-0.1-0.1-0.1c-0.1,0.1-0.2,0.2-0.3,0.3c-0.2,0.3-0.4,0.6-0.6,0.9c-0.7,0.8-1.3,1.7-2,2.4
			c-0.4,0.4-0.9,0.7-1.6,0.8c0.3-0.3,0.5-0.6,0.9-0.9c1.5-1.2,2.5-2.8,3.3-4.6c0.1-0.1,0-0.3,0-0.5c-0.1,0-0.1-0.1-0.2-0.1
			c-1,2-2,3.9-3.9,5.2c0.5-1.1,1-2.3,1.4-3.5c0.4-1.2,0.7-2.5,1-3.7c0,0-0.1,0-0.1,0c-0.2,0.5-0.5,1-0.6,1.5
			c-0.5,1.9-1.3,3.7-2.1,5.4c-0.7,1.5-1.9,2.1-3.1,2.8c0.5-1.4,0.9-2.8,1.4-4.2c0.2-0.6,0.4-1.2,0.7-1.8c0.6-1,1-2,1.2-3.1
			c0.1-0.7,0.2-1.4,0.3-2c0-0.4,0-0.8,0-1.3c-0.1,0-0.1,0-0.2,0c-0.2,2.1-0.4,4.2-1.7,6c0-0.7,0-1.5,0.1-2.2c0.2-1.7-0.5-3.3-0.6-5
			c0-0.2-0.2-0.3-0.2-0.5c-0.1,0-0.1,0-0.2,0.1c0,0.6,0,1.3,0.1,1.9c0.3,1.4,0.5,2.8,0.4,4.2c-0.1,0.8-0.2,1.6-0.3,2.4
			c-1-3.3-1.9-6.5-2.4-9.9c0,0.5,0,1.1,0.1,1.6c0.3,1.6,0.6,3.2,0.9,4.8c0.3,1.4,0.6,2.8,0.9,4.2c0.2,1.1-0.4,3.1-0.9,3.7
			c-0.1-0.7-0.3-1.4-0.4-2.1c-0.1-0.5-0.3-1-0.4-1.4c-0.4-2.6-0.8-5.2-1.1-7.8c0-0.2-0.1-0.3-0.2-0.4c-0.1,0-0.1,0-0.2,0
			c0,0.2-0.1,0.4-0.1,0.7c0.3,1.6,0.6,3.3,0.8,4.9c0.1,0.6,0.1,1.3,0.2,1.9c0,0-0.1,0-0.1,0c-0.3-0.7-0.5-1.3-0.8-2
			c-0.2-0.7-0.5-1.4-0.7-2.1c-0.2-0.7-0.3-1.4-0.5-2.2c-0.2,1.7,0.5,3.1,0.9,4.6c0.2,0.6,0.4,1.2,0.7,1.8c0.5,0.9,0.9,1.9,1.1,3
			c0.2,1.4,0.4,2.8-0.5,4c-0.2,0.3-0.3,0.6-0.5,0.9c-0.4,0.6-0.8,1.2-1.2,1.8c-0.1-0.1-0.1-0.2-0.1-0.2c-0.1-1.3,0.3-2.5,0.9-3.6
			c0.3-0.5,0.4-1.1,0.7-1.7c-0.1,0-0.1-0.1-0.2-0.1c-0.5,1-1.1,2.1-1.6,3.1c-0.1-0.9-0.1-1.7-0.2-2.5c0-0.4-0.1-0.8,0.3-1
			c0.1-0.1,0.2-0.3,0.3-0.4c0.3-1,0.5-2,0.4-3c0-0.1-0.1-0.2-0.1-0.2c0,0-0.1,0-0.1,0c-0.1,1-0.1,2-0.7,2.9c0-0.1,0-0.2,0-0.2
			c0.1-2.1-0.3-4.2-0.9-6.2c-0.1-0.2-0.2-0.5-0.3-0.7c-0.1,0-0.2,0.1-0.2,0.1c0.4,2.1,1.2,4.2,0.9,6.4c-0.5-1-1-2-1.4-3
			c-0.4-1-0.6-2.1-0.9-3.2c-0.1,0.3-0.1,0.6-0.1,1c0.2,2.1,1.1,4,2.1,5.8c0.1,0.2,0.2,0.4,0.3,0.7c-1.4-0.4-1.9-1.6-2.7-2.4
			c0.1,0.4,0.2,0.7,0.4,1c0.5,0.8,1.1,1.6,2.1,1.8c0.1,0,0.2,0.2,0.2,0.4c0.1,0.7,0.1,1.4,0.2,2.1c0,0.6,0.1,1.1,0.1,1.7
			c0,0-0.1,0-0.1,0c-0.6-1.2-1.3-2.4-1.9-3.6c0,0-0.1,0-0.1,0.1c-0.1,0.8,0.6,1.5,0.7,2.3c-1.1-0.8-1.5-2-1.9-3.1
			c-0.1,0.1-0.1,0.2-0.1,0.3c0.3,1.4,0.7,2.6,2,3.3c0.1,0.1,0.3,0.1,0.3,0.3c0.3,0.5,0.7,1,0.9,1.6c0.3,0.7,0.3,1.4-0.3,2
			c-1.4,1.4-2.7,2.9-4.1,4.3c-0.3,0.3-0.6,0.5-0.9,0.7c0.1-1.2,0.4-2.4,0.6-3.6c0.4-1.8,0.7-3.7,0.7-5.6c0-4.9-0.1-9.8,0.1-14.7
			c0.1-1.3,0-2.6,0.1-3.9c0-0.2,0.1-0.4,0.2-0.4c0.6-0.3,1.3,0,1.8,0.6c0.4,0.6,0.5,1.6,0.2,2.1c-0.2,0.2-0.4,0.3-0.7,0.1
			c0.4-0.3,0.4-0.5,0.1-0.6c-0.2-0.1-0.5-0.1-0.7,0c-0.1,0.1-0.1,0.4-0.1,0.5c0.1,0.5,0.5,0.8,0.9,0.8c0.5,0,1-0.4,1.1-1
			c0.1-0.7,0-1.5-0.4-2.1c-0.4-0.6-0.9-0.9-1.7-0.9c0.1-0.1,0.1-0.1,0.2-0.1c2.3-1,3.8-2.7,5-4.8c0.6-1.1,1-2.3,0.9-3.6
			c-0.2-1.4-0.3-2.7-0.5-4.1c0-0.1-0.1-0.3-0.2-0.4c0,0-0.1,0-0.1,0c0,0.2-0.1,0.3,0,0.5c0.1,1,0.2,1.9,0.3,2.9
			c0.1,1,0.1,1.9-0.2,2.9c-0.5,1.7-1.7,3-2.8,4.3c-0.1,0.1-0.2,0.1-0.3,0.2c0-0.2,0.1-0.3,0.2-0.4c0.8-1.1,1.5-2.2,1.6-3.6
			c0.1-2.1,0-4.1-0.5-6.1c0-0.1-0.1-0.3-0.2-0.4c-0.1,0-0.1,0-0.2,0c0,0.2,0,0.5,0,0.7c0.4,1.8,0.4,3.5,0.3,5.3c0,0.3,0,0.7-0.1,1
			c-0.3,1.1-0.9,2.1-1.6,3c-0.2,0.2-0.4,0.4-0.6,0.7c0.8-1.7,1-3.5,1-5.3c0-2.1-0.4-5-0.8-5.3c0,0.2-0.1,0.4-0.1,0.6
			c0,0.4,0.1,0.8,0.1,1.2c0.4,2,0.4,4,0,6C48.4,14.8,48,16,47,17c0.6-1.2,0.9-2.6,0.9-4c0-2.1-0.6-4-1.2-5.9c0-0.2-0.2-0.3-0.2-0.5
			c0,0-0.1,0-0.1,0c0,0.3,0,0.5,0.1,0.8c0.2,1.3,0.6,2.6,0.7,3.9c0.2,1.6,0.3,3.2-0.4,4.7c-0.1,0.1-0.1,0.3-0.2,0.4c0,0-0.1,0-0.1,0
			c-0.3-1.7-0.6-3.3-0.9-5c-0.4-1.6-0.7-3.3-1.2-4.9c-0.1,0-0.1,0-0.2,0c0.1,1.8,0.7,3.4,1,5.2c0.3,1.7,0.6,3.5,0.9,5.3
			c-0.1-0.1-0.1-0.1-0.2-0.2c-0.8-1.6-1.6-3.3-2.2-4.9c-0.4-1-0.6-2.1-1-3.2c-0.1-0.5-0.4-0.9-0.5-1.4c-0.1,0-0.1,0-0.2,0.1
			c-0.1,1.1,0.5,2.1,0.8,3.2c0.3,1.1,0.6,2.2,1,3.3C44,15,44.5,16,45,17.1c-0.7-0.3-1.2-0.8-1.6-1.3c-1.4-1.9-2.1-4-2.5-6.3
			c-0.1-0.4-0.2-0.7-0.3-1.1c-0.1,0-0.1,0-0.2,0.1c0,1.7,0.4,3.4,1,5c0.6,1.6,1.5,3.2,3,4.2c-0.5-0.1-0.9-0.1-1.3-0.3
			c-1.7-1-2.9-2.4-3.4-4.3c-0.3-1-0.5-1.9-0.8-2.9c-0.1-0.2-0.2-0.4-0.2-0.6c0,0-0.1,0-0.1,0c0,0.3,0,0.6,0.1,0.9
			c0.1,0.5,0.2,1,0.3,1.5c0.3,1.2,0.5,2.4,1.3,3.5c1.2,1.6,2.5,2.9,4.7,2.9c0,0,0.1,0,0.2,0.1c-0.2,0.1-0.3,0.2-0.5,0.3
			c-0.6,0.1-1.2,0.3-1.9,0.3c-1.8,0.1-3-0.8-3.8-2.3c-0.7-1.5-1.3-3.1-2-4.7c-0.1-0.2-0.2-0.3-0.3-0.5c0,0-0.1,0-0.1,0
			c0,0.2,0,0.4,0.1,0.6c0.4,1.3,0.9,2.6,1.4,3.9c0.3,0.7,0.6,1.4,1.1,2c0.7,0.9,1.6,1.6,2.8,1.7c0.6,0,1.2,0.1,1.9,0.1
			c-0.5,0.6-0.8,1.3-0.8,2c0,1,0.4,1.4,1.3,1.1c0.4-0.1,0.7-0.5,0.7-0.9c0-0.4-0.2-0.6-0.5-0.6c-0.2,0-0.4,0.1-0.6,0.2
			c-0.1,0-0.1,0.3,0,0.4c0.2,0.1,0.4,0.1,0.5,0.1c-0.1,0.4-0.4,0.4-0.7,0.3c-0.1,0-0.3-0.3-0.3-0.4c0-1.3,0.9-2.6,2.2-2.9
			c0,0.2,0,0.4,0,0.6c-0.1,3.1-0.2,6.1-0.2,9.2c0,3.1,0,6.3,0.1,9.4c0,0.4,0,0.8-0.1,1.3c-0.4,2.2-0.8,4.5-1.2,6.7
			c0,0-0.1,0.1-0.1,0.2c-0.3-0.7-0.6-1.3-0.5-2c0.2-1.5,0.4-3,0.6-4.4c0.2-1.1,0.5-2.3,0.4-3.4c0-0.2,0-0.3-0.1-0.5c0,0-0.1,0-0.1,0
			c-0.1,0.9-0.2,1.8-0.3,2.7c-0.1,0-0.1,0-0.2,0c-0.2-0.9-0.4-1.7-0.5-2.6c-0.1,0-0.1,0-0.2,0c0.1,0.8,0.2,1.5,0.3,2.2
			c0.2,0.8,0.3,1.6,0,2.5c-0.1,0.4-0.2,0.8-0.2,1.2c-0.1,0.5-0.1,0.9-0.2,1.4c0,0-0.1,0-0.1,0c-0.3-1.1-0.6-2.3-0.8-3.4
			c-0.3-1.3-0.5-2.7-0.2-4.1c0.2-1,0.5-2,0.8-3.1c0.2-0.7,0.3-1.5,0.4-2.2c0,0,0,0-0.1,0c-0.4,1.4-0.8,2.9-1.3,4.3c0,0-0.1,0-0.1,0
			c-0.1-3,0.1-6-0.7-9c-0.3,1.3,0.3,2.5,0.2,3.8c0,1.3,0,2.5,0,3.7c-1.1-3-1.8-6.2-2.3-9.5c-0.1,0.2-0.1,0.4-0.1,0.5
			c0.1,1.9,0.5,3.8,1,5.7c0.4,1.7,0.9,3.3,1.4,5c0.1,0.3,0.1,0.5,0.2,0.9c-1.7-1.2-2.8-2.7-3.2-4.6c-0.3-1.4-0.6-2.8-0.9-4.2
			c0-0.2-0.2-0.4-0.3-0.6c-0.1,0-0.2,0.1-0.2,0.1c0.2,1.1,0.5,2.2,0.7,3.2c0.3,1.1,0.5,2.1,0.8,3.3c-1.9-1.8-2.5-4.1-3.1-6.3
			c-0.1,0.1-0.1,0.2-0.1,0.2c0.2,1.9,0.8,3.7,1.9,5.3c0.3,0.4,0.6,0.7,1,1c0.2,0.2,0.5,0.4,0.7,0.6c0.8,1,1.7,2,2.5,3
			c0.1,0.1,0.2,0.3,0.2,0.5c0.1,1,0.2,2.1,0.4,3.1c0,0.2,0.1,0.4,0.1,0.6c0,0.2,0.1,0.4,0.1,0.6c-1-0.9-1.8-1.8-2.3-3
			c-0.4-1-1-1.8-1.6-2.7c-0.3-0.5-0.6-0.9-0.9-1.4c-0.2,0.4-0.2,0.5,0.1,0.9c0.8,1.3,1.6,2.5,2.4,3.8c0.1,0.2,0.2,0.5,0.3,0.7
			c-2.2-1.3-3.6-3.2-4.6-5.5c-0.1,0.1-0.1,0.2,0,0.3c0.8,2.7,2.4,4.6,4.9,5.9c0.1,0.1,0.3,0.1,0.4,0.2c1.5,1.1,2.1,2.7,2.5,4.6
			c-0.8-0.1-1.6-0.2-2.3-0.4c-0.1,0-0.2-0.1-0.3-0.2c-0.7-0.7-1.5-1.4-2.2-2.1c-0.2-0.2-0.4-0.2-0.6-0.4c0.6,0.7,1.3,1.3,1.9,1.9
			c0.2,0.2,0.4,0.3,0.5,0.5c0.2,0.2,0.1,0.4-0.2,0.4c-0.1,0-0.2,0-0.4,0c-1.1-0.2-2.1-0.8-2.9-1.6C36.5,44,36.3,44,36.2,44
			c0,0.2,0,0.3,0.1,0.4c0.2,0.2,0.4,0.4,0.6,0.6c1,0.8,2.2,1.3,3.5,1.2c0.9-0.1,1.8,0.3,2.7,0.2c0.1,0,0.1,0,0.2,0.1
			c0.2,0.5,0.6,1.1,0.6,1.6c-0.1,1-0.4,2.1-0.7,3.1c-1.5,4.6-3.2,9-5.5,13.2c-0.5,0.9-0.9,1.9-1.4,2.9c-0.1,0.1-0.1,0.2-0.2,0.4
			c0-0.1,0-0.2,0-0.2c0.1-2.9,0.3-5.7-0.2-8.6c-0.4-2.1-0.6-4.1-1.1-6.2c-1-4.1-2.1-8.2-3.2-12.3c0-0.1,0.1-0.4,0.2-0.5
			c0.6-0.4,1.2-0.2,1.7,0.3c0.5,0.4,0.7,0.9,0.5,1.4c0,0.1-0.2,0.2-0.3,0.3c-0.1-0.2-0.2-0.5-0.2-0.5c-0.2,0-0.4,0.1-0.6,0.2
			c-0.1,0.1-0.1,0.4,0,0.5c0.2,0.4,0.6,0.5,1,0.3c0.3-0.1,0.6-0.3,0.7-0.6c0.2-0.7,0.1-1.4-0.6-1.9c-0.5-0.4-1-0.8-1.8-0.6
			c1.5-1.4,1.6-3.1,1.3-4.9C33,32.6,32,31.1,31,29.6c-0.5-0.7-1.2-1.4-1.5-2.3c0-0.1-0.2-0.2-0.3-0.2c-0.1,0-0.2,0.2-0.3,0.3
			c0,0.2,0,0.4,0,0.6c0,0.5,0.1,1.1,0,1.6c-0.1,0.6-0.4,1.1-0.6,1.6c-0.7,1.5-1.1,3.1-1,4.8c0.1,1.6,0.5,3,2.2,3.7
			c-0.7,1-1,1.8-1,2.6c0,0.5,0.2,0.9,0.6,1.2c0.3,0.3,0.8,0.2,1.1-0.1c0.3-0.3,0.4-0.9,0.1-1.2c-0.1-0.1-0.4-0.2-0.6-0.1
			c-0.3,0.1-0.1,0.3,0,0.5c0.1,0.1,0,0.3,0,0.4c-0.1,0-0.3,0-0.4-0.1c-0.1-0.1-0.2-0.2-0.2-0.4c-0.2-0.5,0.3-2,0.8-2.3
			c0.2-0.2,0.4-0.1,0.5,0.2c0.2,0.9,0.5,1.9,0.8,2.8c0.8,3,1.6,6.1,2.4,9.1c0.9,3.4,1.5,6.8,1.5,10.3c0,2.6-0.1,5.1-0.1,7.7
			c0,0.1,0,0.1-0.1,0.3c-0.5-0.6-0.9-1-1.3-1.6c-0.6-0.8-1.1-1.7-1.2-2.8c-0.2-1.4,0-2.9,0.3-4.3c0.3-1.3,0.5-2.5,0.4-3.8
			c0-0.3-0.1-0.6-0.2-0.9c-0.1,0-0.1,0-0.2,0c0,0.6,0,1.2,0,1.8c0,0.6-0.2,1.2-0.3,1.8c-0.1,0.6-0.3,1.2-0.4,1.8c-0.1-1,0-2-0.1-2.9
			c0-1-0.1-1.9-0.2-2.9c-0.1,0-0.2,0-0.2,0c0,2.4,0,4.8,0,7.2c0,0-0.1,0-0.1,0c-0.1-0.2-0.3-0.5-0.3-0.7c-0.4-1.4-0.8-2.9-1.2-4.4
			c-0.3-1.2,0-2.4,0.7-3.4c0.6-0.8,0.7-1.8,0.9-2.8c0-0.1,0-0.3-0.1-0.4c0,0-0.1,0-0.1,0c-0.6,1.2-0.3,2.8-1.6,3.6
			c0-0.3,0-0.5,0-0.8c0.1-1.9,0.1-3.9,0.2-5.8c0-0.3,0-0.6-0.1-0.9c0-0.1-0.2-0.2-0.3-0.4c0,0-0.1,0-0.1,0.1c0,2.5,0,4.9,0,7.4
			c-0.1,0-0.1,0-0.2,0c0-0.1-0.1-0.2-0.1-0.3c-0.5-2.2-0.9-4.5-1.4-6.7c-0.1-0.4-0.2-0.7-0.3-1.1c-0.1,0.3-0.1,0.5-0.1,0.7
			c0.2,1.5,0.4,3,0.7,4.5c0.3,1.6,0.7,3.1,1.1,4.6c0.1,0.4,0.1,0.9,0.2,1.3c0.6,2.6,1.4,5.2,2.5,7.7c0.3,0.7,0.6,1.4,0.9,2.1
			c-0.1,0-0.2,0-0.2,0c-0.1,0-0.1-0.1-0.2-0.1c-1.6-1.4-2.7-3.2-3.7-5c0-0.1-0.1-0.2-0.1-0.3c-0.2-1.6-0.5-3.2-0.7-4.8
			c-0.1-1-0.3-2-0.5-3c0-0.2-0.2-0.4-0.2-0.5c-0.1,0-0.2,0-0.3,0.1c0.4,2.5,0.7,5,1.1,7.5c-0.2-0.2-0.4-0.4-0.5-0.6
			c-1-2.2-1.6-4.5-1.8-6.8c0-0.2,0-0.5,0-0.7c-0.1,0.1-0.1,0.2-0.2,0.4c-0.1,1.5,0.2,3,0.5,4.5c0.4,1.5,0.8,3,1.9,4.1
			c0.1,0.1,0.1,0.2,0.2,0.3c0.4,0.7,0.7,1.5,1.2,2.2c0.9,1.5,1.9,2.8,3.4,3.7c0.3,0.2,0.5,0.5,0.8,0.7c0,0-0.1,0.1-0.1,0.1
			c-0.2-0.1-0.4-0.2-0.6-0.2c-1.2-0.4-2.2-1.1-3.2-1.8c-0.6-0.3-1-0.8-1.2-1.3c-0.4-0.9-0.7-1.7-1-2.6c-0.1-0.2-0.2-0.3-0.3-0.5
			c-0.1,0-0.1,0.1-0.2,0.1c0.2,1.2,0.7,2.3,1.3,3.4c-0.5,0-0.9-0.2-1.2-0.9c-0.6-1.2-1.1-2.4-1.7-3.6c-0.1-0.2-0.1-0.3-0.2-0.5
			c-0.1,0.3,0,0.5,0,0.8c0.3,1.3,0.9,2.6,1.6,3.7c0.2,0.4,0.7,0.7,1.1,0.9c1,0.4,1.8,1,2.7,1.6c0.9,0.5,1.9,1,2.9,1.3
			c1.1,0.3,1.7,1,1.7,2.1c0,2.9,0,5.9,0.1,8.8c0,2.2,0.3,4.3,0.3,6.5c0.1,2.6,0,5.1,0.1,7.7c0,0.8,0.1,1.7,0.1,2.5
			c0.1,1.8,0.3,3.5,0.3,5.3c0,3.5,0,7-0.1,10.5c0,2.8-0.1,5.5-0.2,8.3c-0.1,3.4-0.5,12.4-0.3,15.8c0,0.5,0.2,0.8,0.6,0.8
			c0.4,0,0.6-0.3,0.6-0.8c0-2.1,0.1-9.8,0.3-11.9c0.2-2.2,0.1-4.5,0.2-6.7c0-0.7,0.1-1.4,0.1-2.1c0.1-1.6,0.4-3.1,0.4-4.7
			c0-2.6,0.5-5.1,1.3-7.5c0.8-2.5,1.9-4.9,3.3-7.1c0.5-0.7,1.1-1.3,1.8-1.7c1.4-0.7,2.7-1.5,4-2.2c0.7-0.4,1.5-0.8,2.3-1
			c1.7-0.4,3.1-1.4,4.4-2.6c0.5-0.4,1-0.8,1.5-1.1c0.3-0.2,0.7-0.3,1-0.5c2.1-1,3.6-2.6,4.7-4.7c0.1-0.2,0.1-0.4,0.2-0.6
			c0,0-0.1,0-0.1-0.1c-0.1,0.1-0.3,0.2-0.4,0.4c-0.3,0.4-0.5,0.8-0.8,1.2c-0.9,1.3-1.9,2.3-3.3,3.1c-0.1,0-0.2,0.1-0.3,0.1
			c1.4-1.9,2.7-3.8,4-5.7c-0.1-0.1-0.1-0.1-0.2-0.2c-0.1,0.2-0.3,0.4-0.4,0.6c-0.9,1.2-1.8,2.4-2.8,3.6c-0.5,0.7-1.1,1.4-1.7,2
			c-0.8,0.7-1.6,1.4-2.4,2c-1.2,0.9-2.4,1.7-3.9,2c0.4-0.4,0.8-0.8,1.1-1.2c1.6-2.2,3.6-4,5.7-5.8c1.9-1.6,3.3-3.6,4.2-5.9
			c0.1-0.2,0.1-0.5,0.2-0.7c-0.1,0-0.1,0-0.2-0.1c-0.6,1.1-1.1,2.2-1.8,3.2c-0.7,1-1.5,1.9-2.3,2.9c0,0-0.1-0.1-0.1-0.1
			c0.6-2.2,1.6-4.2,2.7-6.1c-0.1,0-0.1-0.1-0.2-0.1c-0.2,0.2-0.4,0.5-0.6,0.7c-0.9,1.3-1.6,2.7-1.9,4.2c-0.3,1.3-0.9,2.4-2,3.2
			c-0.2,0.2-0.4,0.4-0.7,0.6c-0.1,0-0.1-0.1-0.2-0.1c0.4-1.5,0.9-3,1.3-4.5c0.5-1.5,1.3-2.8,2.4-3.9c-0.1,0-0.1-0.1-0.2-0.1
			c-0.6,0.7-1.3,1.4-1.8,2.2c-1.1,1.8-1.6,3.8-2.1,5.9c-0.1,0.5-0.4,1.1-0.7,1.6c-0.3,0.5-0.7,0.9-1.1,1.3c-0.8,0.9-1.6,1.7-2.4,2.6
			c-0.1,0.2-0.3,0.3-0.5,0.4c0.2-0.8,0.5-1.6,0.6-2.4c0.2-1.6,0.8-3,1.8-4.3c0.8-1,1.5-2.1,2.2-3.2c0.1-0.2,0.2-0.5,0.3-0.7
			c-0.1,0-0.1-0.1-0.2-0.1c-0.9,1.3-1.9,2.6-2.8,4c0,0-0.1,0-0.1-0.1c0.4-1.8,1.1-3.6,2.2-5.1c-0.2,0.1-0.5,0.2-0.6,0.4
			c-0.5,0.8-1.1,1.6-1.4,2.5c-0.6,1.7-1,3.5-1.5,5.2c-0.4,1.4-0.8,2.8-1.3,4.2c-0.1,0.3-0.4,0.6-0.6,0.7c-1.2,0.7-2.4,1.3-3.6,1.9
			c0,0-0.1,0-0.1,0c0.4-0.8,0.9-1.5,1.3-2.3c1.5-3.3,2.9-6.7,3.9-10.2c0.1-0.2,0.2-0.4,0.3-0.6c0.9-0.9,1.7-1.7,2.6-2.5
			c0.5-0.4,0.9-0.8,1.5-1.2c0.5-0.3,1-0.5,1.5-0.7c0.6-0.3,1.3-0.5,1.9-0.7c1-0.3,2-0.6,3-0.9c1.1-0.4,2.2-0.9,3-1.8
			c0.2-0.2,0.3-0.4,0.5-0.7C63,74.1,63,74,62.9,74C62.3,74.5,61.7,75,61.1,75.3z M30.4,29.8c0.1,0.1,0.1,0.2,0.2,0.3
			c0.7,1.3,1.5,2.5,2,3.9c0.6,1.6,0.6,3.3-0.7,4.7c0,0-0.1,0.1-0.1,0.1c0,0-0.1,0-0.1,0c0.7-3.2-0.1-6.1-1.3-9
			C30.3,29.9,30.4,29.9,30.4,29.8z M28.2,37.6c-0.6-2-0.3-3.9,0.6-5.8c-0.3,2.5-0.4,5,0.8,7.3C29,38.8,28.4,38.3,28.2,37.6z
			 M29.4,30.5c0.3,2.7,0.5,5.5,0.8,8.2C28.7,36.2,29.1,33.4,29.4,30.5z M31.2,38.2c-0.1,0-0.1,0-0.2,0c-0.2-0.6-0.4-1.3-0.4-1.9
			c-0.2-1.6-0.3-3.2-0.5-4.8c0-0.4-0.1-0.8-0.1-1.2C31,32.9,31.7,35.5,31.2,38.2z"/>
		<path id="XMLID_126_" class="st1" d="M48.4,3.6c-0.1-0.1-0.2,0-0.3,0c-0.7,0-1.2,0.3-1.5,0.8c-0.4,0.6-0.1,1.1,0.6,1.2
			c0.6,0.1,1.2-0.2,1.6-0.6c0.3-0.2,0.6-0.5,0.4-0.9C49.1,3.9,48.7,3.8,48.4,3.6z"/>
		<path id="XMLID_125_" class="st1" d="M44.7,3.8c-0.7,0-1.3,0.5-1.4,1.1c0,0.5,0.3,0.8,1,0.8c0.7,0,1.4-0.6,1.4-1.2
			C45.7,4.1,45.3,3.8,44.7,3.8z"/>
		<path id="XMLID_124_" class="st1" d="M39.7,4.8c-0.6,0-1.2,0.5-1.2,1.1c0,0.4,0.3,0.8,0.7,0.8c0.6,0,1.2-0.5,1.2-1.1
			C40.4,5.1,40.1,4.8,39.7,4.8z"/>
		<path id="XMLID_123_" class="st1" d="M37,8.8c-0.5-0.1-0.9,0-1.3,0.4c-0.3,0.3-0.3,0.6-0.1,1c0.1,0.2,0.4,0.3,0.4,0.4
			c0.7,0,1.4-0.7,1.4-1.2C37.5,9.1,37.3,8.8,37,8.8z"/>
		<path id="XMLID_122_" class="st1" d="M49.4,1.2c-0.6,0-1,0.3-1,0.8c0,0.5,0.3,0.8,0.7,0.8c0.5,0,1-0.4,1-0.9
			C50.2,1.4,49.9,1.2,49.4,1.2z"/>
		<path id="XMLID_121_" class="st1" d="M52.5,2c-0.5,0-0.8,0.3-0.8,0.7c0,0.4,0.3,0.8,0.7,0.8c0.4,0,0.8-0.5,0.8-0.9
			C53.2,2.2,52.9,2,52.5,2z"/>
		<path id="XMLID_120_" class="st1" d="M41.5,5.6c-0.5,0-0.9,0.5-0.8,1c0,0.3,0.1,0.6,0.5,0.6c0.4,0,0.9-0.5,0.9-1
			C42,5.8,41.9,5.6,41.5,5.6z"/>
		<path id="XMLID_119_" class="st1" d="M37.1,5.9c-0.5,0-0.8,0.3-0.8,0.7c0,0.3,0.1,0.5,0.5,0.5c0.4,0,0.7-0.3,0.7-0.8
			C37.5,6,37.4,5.9,37.1,5.9z"/>
		<path id="XMLID_118_" class="st1" d="M46.3,2.1c-0.4,0-0.7,0.3-0.7,0.6c0,0.3,0.2,0.4,0.5,0.4c0.5,0,0.9-0.2,0.8-0.5
			C46.9,2.2,46.7,2.1,46.3,2.1z"/>
		<path id="XMLID_117_" class="st1" d="M50.7,3.6c-0.4,0-0.5,0.3-0.5,0.6c0,0.3,0.1,0.5,0.5,0.5c0.3,0,0.6-0.1,0.6-0.4
			C51.2,3.9,51.1,3.6,50.7,3.6z"/>
		<path id="XMLID_116_" class="st1" d="M43.7,1.7c-0.3-0.1-0.6,0.2-0.7,0.5c0,0.3,0.1,0.5,0.4,0.5c0.3,0,0.7-0.2,0.8-0.7
			C44,1.9,43.9,1.7,43.7,1.7z"/>
		<path id="XMLID_115_" class="st1" d="M39.4,7.9c-0.3,0-0.7,0.2-0.7,0.6c0,0.2,0.3,0.3,0.3,0.4c0.5,0,0.8-0.3,0.8-0.6
			C39.8,8,39.6,7.9,39.4,7.9z"/>
		<path id="XMLID_114_" class="st1" d="M42,3.3c-0.3-0.1-0.5,0.2-0.6,0.7c0.1,0.1,0.3,0.3,0.5,0.3c0.3,0,0.6-0.2,0.5-0.6
			C42.4,3.6,42.2,3.4,42,3.3z"/>
	</g>
	<g>
		<path id="XMLID_113_" class="st1" d="M36.2,16.1c-0.1,0.2-0.2,0.4-0.3,0.6c-0.6,1.7-1.6,3.1-3,4.2c-1.6,1.3-3.4,2.1-5.5,1.7
			c-0.4-0.1-0.8-0.2-1.2-0.3c0,0,0-0.1,0-0.1c0.4-0.1,0.8-0.2,1.3-0.2c2.3-0.1,4.1-1.1,5.5-2.8c0.6-0.7,0.9-1.5,1.4-2.3
			c0.1-0.1-0.1-0.3-0.1-0.5c-0.1,0.1-0.3,0.2-0.4,0.3c-0.5,1.5-1.5,2.5-2.7,3.5c-1.2,1-2.7,1.2-4.2,1.3c0.8-0.6,1.7-1.1,2.5-1.7
			c1.2-0.8,2.2-1.8,2.8-3.1c0.1-0.3,0.3-0.5-0.1-1c-0.6,1.3-1.4,2.3-2.4,3.1c-1,0.8-2.1,1.5-3.2,2.2c0,0-0.1-0.1-0.1-0.1
			c0.1-0.1,0.2-0.2,0.2-0.3c1.4-1.5,2.6-3.3,3.5-5.2c0.1-0.2,0.2-0.3,0.2-0.5c0-0.1-0.1-0.2-0.1-0.3c0,0-0.2,0-0.2,0.1
			c-0.1,0.2-0.3,0.3-0.4,0.5c-0.7,1.2-1.4,2.4-2.1,3.5c-0.5,0.7-1.1,1.4-1.6,2c-0.1,0.1-0.2,0.3-0.3,0.5c0,0-0.1,0-0.1-0.1
			c0.1-0.7,0.2-1.3,0.4-1.9c0.4-1.5,1-2.9,1.9-4.1c0.2-0.3,0.4-0.5,0.2-0.9c-1.7,1.8-2.5,4-2.9,6.4c-0.1-0.1-0.1-0.3-0.2-0.4
			c-0.2-1.3-0.2-2.6,0.3-3.8c0.3-0.9,0.9-1.7,1.3-2.6c0.1-0.2,0.2-0.4,0.4-0.7c-0.7,0.1-0.9,0.5-1.2,0.8c-1.2,1.7-1.5,3.6-1.4,5.6
			c0,0.2,0.1,0.5,0.1,0.7c0,0-0.1,0-0.1,0c-1-2.4-0.9-4.8-0.3-7.3c-0.8,0.9-0.9,1.9-0.9,3c0,1,0.1,2.1,0.2,3.2
			c0.1,1.1,0.8,1.9,1.3,2.8c-0.2,0-0.3-0.1-0.4-0.2c-0.4-0.7-1-1.3-1.3-2c-0.8-2.1-1-4.3-0.7-6.5c0-0.2,0-0.4,0-0.6
			c-0.1,0-0.1,0-0.2,0c-0.1,0.4-0.3,0.8-0.4,1.2c-0.3,3-0.1,5.9,2,8.4c-1.4,0.4-1.9,1.2-1.9,2.5c0,0.3,0.1,0.6,0.4,0.7
			c0.3,0,0.7,0,0.9-0.1c0.3-0.2,0.4-0.6,0.2-0.9c-0.1-0.2-0.3-0.3-0.5-0.3c-0.1,0-0.4,0.2-0.3,0.3c0,0.2,0.2,0.3,0.3,0.5
			c-0.2,0.2-0.5,0.2-0.5-0.1c-0.1-0.7,0.2-1.3,0.7-1.7c0.5-0.4,1-0.3,1.6-0.2c0,0.2-0.1,0.4-0.1,0.5c-0.8,2.6-1.6,5.2-2.4,7.9
			c-0.6,1.8-1,3.5-1.1,5.4C21,39,21,41.5,21,44.1c0,1.2,0.1,2.5,0.3,3.7c0.2,1.7,0.5,3.4,0.4,5.1c-0.1,2-0.1,4.1-0.1,6.1
			c0,3.8,0,7.6,0,11.5c0,3.2,0.2,6.4,0.8,9.5c0.7,3.8,1,7.6,1.1,11.4c0.1,4.1,0,8.2,0,12.2c0,0.2-0.1,0.3-0.1,0.5
			c-0.1-0.4-0.1-0.7-0.2-1c-0.4-2.5-0.8-4.9-1.3-7.4c-0.8-3.7-1.9-7.3-3.2-10.9c-1.2-3.6-2.5-7.1-3.8-10.7c-0.5-1.3-1-2.7-1.4-4
			c-0.9-3.1-1.5-6.4-1.8-9.6c-0.3-3.3-0.5-6.6-0.5-10c0-0.3,0.1-0.5,0.4-0.5c0.5-0.1,0.9-0.2,1.4-0.2c0.5,0,0.8,0.2,0.9,0.7
			c0.1,0.4,0.1,0.8,0,1.1c-0.1,0.4-0.3,0.7-0.7,0.7c-0.4,0-0.7-0.3-0.9-0.8c0.1,0.1,0.2,0.2,0.2,0.2c0.1,0.1,0.3,0.1,0.4,0.1
			c0-0.2,0.1-0.3,0-0.5c-0.1-0.3-0.4-0.4-0.7-0.3c-0.4,0.1-0.5,0.3-0.5,0.7c0.1,0.4,0.6,1,1.1,1.1c0.5,0.1,1.1-0.1,1.4-0.6
			c0.4-0.7,0.3-1.4,0.1-2.1c-0.2-0.6-0.6-0.9-1.3-0.9c0.6-0.4,1.1-0.7,1.6-1c1-0.6,1.8-1.3,2.3-2.4c0.3-0.6,0.7-1.2,0.9-1.9
			c0.5-1.4,1-2.8,0.9-4.4c0-0.2-0.1-0.4-0.1-0.7c-0.1,0-0.1,0-0.2,0c0,0.2-0.1,0.5-0.1,0.7c0,0.3,0,0.5,0,0.8
			c-0.4,2-1.1,3.9-2.2,5.6c-0.5,0.7-1.2,1.2-2.1,1.7c0.1-0.2,0.1-0.2,0.1-0.3c1.3-2.6,1.9-5.2,1.4-8.1c0-0.2-0.1-0.3-0.2-0.5
			c-0.1,0-0.1,0-0.2,0.1c0,0.3,0,0.7,0,1c0.3,2.6-0.3,4.9-1.5,7.2c-0.3,0.6-0.8,1-1.4,1.4c0.2-0.6,0.5-1.2,0.7-1.8
			c0.2-0.6,0.3-1.3,0.3-1.9c0-0.7,0-1.3-0.1-2c0-0.6,0-1.3-0.1-1.9c-0.1-0.6,0.1-1.3-0.4-1.8c-0.1,0.6-0.1,1.2-0.1,1.7
			c0,1.3,0.1,2.6,0.1,3.9c0,1.2-0.3,2.3-1.1,3.3c-0.1-1.4-0.2-2.8-0.4-4.1c-0.2-1.3-0.4-2.6-0.7-3.9c0-0.2-0.2-0.4-0.3-0.5
			c0,0-0.1,0-0.1,0.1c0.3,2.7,0.5,5.3,0.8,8c-0.1,0-0.1,0-0.2,0c-1.2-2.3-2.1-4.8-2.8-7.3c-0.2,1.4,0.3,2.7,0.8,3.9
			c0.4,1.3,1,2.5,1.5,3.8c-1.2-0.5-2.1-1.4-2.8-2.6c-0.7-1.3-1.3-2.6-1.8-4c0-0.1-0.1-0.2-0.2-0.4c-0.1,0-0.1,0.1-0.2,0.1
			c0.6,2.6,1.4,5.1,3.6,6.9c-1.5-0.7-2.7-1.7-3.7-2.9c-1.1-1.3-1.2-2.9-1.6-4.5c-0.1,0.4-0.1,0.7-0.1,1.1c0.1,1.2,0.3,2.4,1,3.4
			c0.7,1.2,1.8,2,2.9,2.8c0.4,0.3,1,0.5,1.5,0.7c0.5,0.2,1,0.4,1.6,0.5c0,0,0,0.1,0,0.1c-0.2,0-0.5,0.1-0.7,0
			c-0.9-0.2-1.9-0.3-2.8-0.6c-0.6-0.2-1.2-0.5-1.6-1c-1-1.2-2-2.4-2.7-3.9c0-0.1-0.1-0.1-0.2-0.2c0,0-0.1,0-0.1,0.1
			c0.1,0.4,0.2,0.8,0.5,1.2c0.5,0.8,1,1.6,1.5,2.4C5,49,6.1,49.7,7.5,50c0.4,0.1,0.9,0.2,1.4,0.3c-0.1,0.1-0.2,0.2-0.3,0.3
			c-0.7,0.7-0.9,1.7-0.7,2.6c0.1,0.7,0.8,0.9,1.2,0.7c0.4-0.2,0.7-1.1,0.5-1.5C9.5,52.2,9.2,52,9,52c-0.1,0-0.4,0.2-0.3,0.3
			c0,0.2,0.2,0.3,0.4,0.5C9,52.8,9,53,9,53c-0.1,0.1-0.2,0.2-0.3,0.3c-0.1-0.1-0.3-0.2-0.3-0.4c0-0.2,0-0.5,0-0.7
			c0.1-1.1,0.9-1.8,1.9-1.6c0,0.1,0,0.2,0,0.3c-0.1,3.5,0.2,7,0.6,10.4c0.4,3.4,1,6.8,2.1,10.1c0.6,1.8,1.4,3.6,2,5.4
			c1.3,3.6,2.5,7.3,3.8,11c1.3,3.7,2.2,7.5,3,11.4c0.7,3.3,1,6.6,1.1,10c0.1,1.6-0.1,3.3-0.1,4.9c0,0.3,0,0.6-0.1,1.1
			c-0.2-0.2-0.3-0.3-0.4-0.4c-0.5-0.6-1-1.3-1.5-1.9c-1.6-2-2.7-4.3-3.6-6.6c-0.6-1.5-0.8-3.1-0.3-4.7c0.2-0.7,0.5-1.5,0.9-2.1
			c0.6-1.1,0.7-2.3,0.7-3.5c0-0.2-0.1-0.3-0.1-0.5c-0.1,0-0.1,0-0.2,0c0,0.3-0.1,0.6-0.1,0.9c0,1-0.1,2-0.7,2.9
			c-0.2,0.4-0.4,0.8-0.6,1.2c-0.2,0.4-0.3,0.8-0.4,1.2c-0.1,0.4-0.2,0.8-0.2,1.3c0-3,0-5.9,0.4-8.9c0.3-1.9,0.2-3.8,0.3-5.7
			c0-0.2-0.1-0.4-0.1-0.6c-0.1,0-0.1,0-0.2,0c-0.1,0.3-0.1,0.5-0.2,0.8c0,1.6,0,3.1-0.1,4.7c0,0.6-0.2,1.2-0.3,1.8
			c-1.3-2.9-1.1-6-1.3-9c-0.1,0.3-0.2,0.5-0.2,0.8c0,1.3,0,2.5,0,3.8c0,0.3,0,0.6,0.1,0.9c0.4,1.6,0.8,3.2,1.2,4.8
			c0,0.1,0,0.2,0,0.4c-0.1,1.9-0.1,3.8-0.2,5.7c0,0.1,0,0.2,0,0.4c-0.1-0.2-0.2-0.3-0.2-0.4c-1.2-3.3-2.6-6.6-2.8-10.2
			c-0.1-1.5-0.2-2.9-0.3-4.4c0-0.1,0-0.3,0.1-0.4c0.5-0.4,0.7-1.1,0.7-1.7c0.2-1.5,0.4-3,0.5-4.5c0-0.1-0.1-0.2-0.1-0.3
			c0,0-0.1,0-0.1,0c-0.6,1.8-0.3,3.8-1.1,5.5c-0.1-0.9-0.2-1.8-0.4-2.7c-0.3-2.1-0.7-4.2-1.1-6.3c0-0.2-0.1-0.4-0.2-0.5
			c-0.1,0-0.1,0-0.2,0.1c-0.1,1.7,0.6,3.4,0.8,5.1c0.2,1.7,0.5,3.4,0.6,5.1c0.2,1.7,0.2,3.4,0.3,5.2c-0.1-0.1-0.1-0.2-0.1-0.3
			c-0.6-1.8-1.2-3.7-2-5.5c-0.3-0.7-0.4-1.4-0.5-2.1c-0.1-1.5-0.2-3-0.4-4.4c-0.4-2.1-1-4.2-1.5-6.3c0-0.1-0.1-0.3-0.2-0.4
			c-0.1,0-0.1,0-0.2,0c0.7,3.4,1.5,6.9,1.6,10.4c-0.6-1.4-1.2-2.8-1.7-4.3c-0.5-1.4-0.8-2.9-1.2-4.4c0.4,4.4,2.2,8.3,3.7,12.2
			c-0.3-0.3-0.5-0.5-0.8-0.8c-1-1.2-1.8-2.6-2.3-4.1c-0.9-2.2-1.9-4.5-2.8-6.7c-0.1-0.3-0.2-0.5-0.3-0.8c0,0.2,0,0.4,0.1,0.5
			c1,2.7,2,5.4,3,8.1c0.6,1.5,1.5,2.8,2.6,4c0.6,0.7,1.4,1.4,1.6,2.3c0.4,1.4,0.8,2.7,1.2,4.1c0.7,2.3,1.3,4.6,2.1,6.9
			c0.4,1.2,0.9,2.3,1.3,3.5c-0.7-0.7-1.3-1.3-1.9-2.1c-1.3-1.9-2.6-3.9-3.8-5.9c-0.7-1.2-1.3-2.4-1.6-3.8C7.9,90.3,7.5,88.1,7,86
			c-0.1-0.3-0.2-0.6-0.3-0.9c-0.1,0-0.2,0-0.2,0.1C7,88.1,7.8,91,8.3,94c-2.1-3.2-3.4-6.7-4.8-10.2c0,0.1,0,0.2,0,0.3
			c0.4,2.2,1.3,4.2,2.2,6.2c0.7,1.6,1.4,3.1,2.5,4.5c0.4,0.4,0.8,0.9,1.1,1.3c0.9,1.5,1.8,3,2.8,4.4c0.3,0.5,0.6,1.2,1,1.7
			c0.9,1.1,1.8,2.1,2.7,3.2c0.1,0.1,0.2,0.3,0.3,0.4c-1.4-0.3-2.8-0.3-4-1c-0.7-0.4-1.4-0.7-2-1c-0.1-0.1-0.2-0.2-0.2-0.3
			c-0.2-1.4-0.5-2.9-0.7-4.3c-0.1-0.4-0.2-0.8-0.3-1.3c-0.1,0-0.1,0-0.2,0c0.2,1.7,0.4,3.3,0.6,4.9c-0.8-0.7-1.2-1.7-1.5-2.8
			c-0.3-1.3-0.8-2.6-1.2-3.9c-0.1-0.2-0.2-0.4-0.3-0.6c-0.1,0-0.1,0.1-0.2,0.1c0.5,1.8,1.1,3.6,1.6,5.4c-1.4-1.5-2.4-3.4-3.5-5.1
			c0.5,1.2,1.1,2.4,1.8,3.5c0.7,1.1,1.5,2.1,2.3,3.2c-1.4-0.4-2.5-1.2-3.6-2c0.4,1,1.3,1.4,2.2,1.8c1,0.5,2,0.9,3,1.5
			c1,0.7,2.2,1.2,3.3,1.8c0.2,0.1,0.4,0.1,0.7,0.2c0.7,0.1,1.4,0.2,2.1,0.4c0.6,0.1,0.9,0.4,1.2,1c1.4,2.9,3,5.7,4.8,8.4
			c0.6,0.8,1,1.6,0.8,2.7c-0.1,0.3-0.1,0.6-0.1,1c-0.1,3.1-0.1,6.2-0.2,9.3c0,0.5-0.1,1.1-0.1,1.6c0,0.4-0.1,0.8,0,1.3
			c0,0.3,0.2,0.6,0.6,0.6c0.4,0,0.7-0.2,0.7-0.6c0-0.2,0-0.3,0-0.5c0-2,0-4.1,0.1-6.1c0.1-2.5,0.2-5,0.4-7.6
			c0.2-3.8,0.5-7.7,0.5-11.5c0-5.8,0.3-11.6-0.1-17.4c-0.2-2.2-0.3-4.5-0.7-6.7c-0.5-3.2-1-6.3-1-9.5c-0.1-5.6,0-11.2,0-16.9
			c0-2.2,0.2-4.4-0.2-6.6c-0.4-2-0.5-4-0.5-6c0-1.6,0-3.2,0-4.8c0-2.3,0.4-4.6,1.2-6.8c0.5-1.5,1-3,1.5-4.5c0.4-1.2,0.7-2.5,1-3.8
			c0.6,0,1,0.3,1,0.9c0.1,1.1-0.1,1.6-0.6,1.7c0-0.2-0.1-0.3-0.1-0.5c0,0-0.3,0-0.3,0c-0.1,0.2-0.2,0.4-0.2,0.6
			c0.1,0.2,0.3,0.3,0.4,0.4c0.4,0.1,0.8-0.1,1-0.5c0.3-0.7,0.3-1.5,0.1-2.3c0.2,0,0.4,0.1,0.5,0.1c0.6,0,1.3,0.1,1.9,0
			c1.8-0.4,3.3-1.2,4.6-2.5c1-1.1,1.9-2.2,2.4-3.6C36.5,16.8,36.6,16.5,36.2,16.1z"/>
		<path id="XMLID_112_" class="st1" d="M16.9,37.1c-0.6,0-1,0.3-1.1,0.8c0,0.6,0.4,1,0.8,1c0.6,0,1.2-0.5,1.2-1
			C17.9,37.5,17.4,37.1,16.9,37.1z"/>
		<path id="XMLID_111_" class="st1" d="M33.8,13.7c-0.5,0-0.8,0.3-0.8,0.8c0,0.5,0.3,0.9,0.9,0.9c0.6,0,1.1-0.4,1.1-0.9
			C35,14,34.5,13.7,33.8,13.7z"/>
		<path id="XMLID_110_" class="st1" d="M29.4,12c-0.6,0-1.1,0.4-1.1,1.1c0,0.5,0.2,0.7,0.6,0.7c0.5,0,1.1-0.6,1.1-1.1
			C30,12.2,29.8,12,29.4,12z"/>
		<path id="XMLID_109_" class="st1" d="M11.7,37c-0.5,0-1,0.4-1,1c0,0.5,0.3,0.8,0.7,0.8c0.5,0,1-0.4,1-1C12.4,37.4,12.1,37,11.7,37
			z"/>
		<path id="XMLID_108_" class="st1" d="M3.4,38.3c-0.5,0-0.9,0.4-0.8,0.9c0,0.4,0.3,0.7,0.6,0.7c0.5,0,0.9-0.4,0.9-0.9
			C4.1,38.6,3.8,38.3,3.4,38.3z"/>
		<path id="XMLID_107_" class="st1" d="M31.5,10c-0.4,0-0.8,0.4-0.8,0.9c0,0.4,0.2,0.7,0.6,0.7c0.5,0,0.9-0.4,0.9-0.9
			C32.2,10.3,31.9,10,31.5,10z"/>
		<path id="XMLID_106_" class="st1" d="M26,8.9c-0.5,0-1.1,0.4-1.1,0.7c0,0.3,0.4,0.7,0.7,0.7c0.6,0,1-0.3,1-0.8
			C26.7,9.1,26.5,8.9,26,8.9z"/>
		<path id="XMLID_105_" class="st1" d="M25.3,10.9c-0.4,0-0.8,0.3-0.8,0.7c0,0.5,0.2,0.8,0.6,0.8c0.4,0,0.7-0.4,0.8-0.8
			C25.9,11.1,25.7,10.9,25.3,10.9z"/>
		<path id="XMLID_104_" class="st1" d="M7.7,38.3c-0.5,0-0.9,0.4-0.9,0.8c0,0.4,0.1,0.6,0.5,0.7c0.4,0,0.9-0.5,0.9-1
			C8.2,38.5,8,38.3,7.7,38.3z"/>
		<path id="XMLID_103_" class="st1" d="M14.1,37.1c-0.4,0-0.7,0.4-0.7,0.9c0,0.3,0.1,0.6,0.5,0.7c0.4,0,0.8-0.4,0.8-0.9
			C14.6,37.3,14.4,37.1,14.1,37.1z"/>
		<path id="XMLID_102_" class="st1" d="M13,35.1c-0.5,0-0.9,0.4-0.9,0.7c0,0.4,0.2,0.5,0.6,0.5c0.6,0,0.9-0.3,0.9-0.7
			C13.5,35.3,13.3,35.1,13,35.1z"/>
		<path id="XMLID_101_" class="st1" d="M8.3,35.9c-0.4,0-0.7,0.2-0.7,0.6c0,0.4,0.3,0.7,0.6,0.7c0.4,0,0.7-0.3,0.7-0.7
			C8.9,36.1,8.6,35.9,8.3,35.9z"/>
		<path id="XMLID_100_" class="st1" d="M31.9,12.6c-0.5,0-0.8,0.2-0.8,0.6c0,0.4,0.2,0.7,0.6,0.7c0.4,0,0.6-0.3,0.7-0.7
			C32.4,12.8,32.2,12.6,31.9,12.6z"/>
		<path id="XMLID_99_" class="st1" d="M2,42c-0.4,0-0.6,0.3-0.6,0.6c0,0.4,0.2,0.6,0.6,0.6c0.4,0,0.6-0.2,0.6-0.6
			C2.5,42.2,2.4,42,2,42z"/>
		<path id="XMLID_98_" class="st1" d="M5.3,39.2c-0.3,0-0.7,0.3-0.6,0.7c0,0.2,0.2,0.4,0.3,0.5c0.5,0,0.7-0.3,0.7-0.6
			C5.7,39.4,5.6,39.2,5.3,39.2z"/>
		<path id="XMLID_97_" class="st1" d="M15.5,35.6c-0.3,0-0.6,0.2-0.5,0.5c0,0.2,0.2,0.4,0.4,0.5c0.1,0,0.2,0,0.2,0
			c0.1-0.2,0.4-0.4,0.4-0.6C16,35.7,15.8,35.5,15.5,35.6z"/>
		<path id="XMLID_70_" class="st1" d="M5.6,37.3c-0.1,0-0.1,0-0.2,0C5.2,37.5,5,37.7,5,37.9c0,0.1,0.2,0.4,0.4,0.4
			c0.3,0,0.6-0.2,0.5-0.6C5.9,37.6,5.7,37.5,5.6,37.3z"/>
		<path id="XMLID_52_" class="st1" d="M33.6,11.9c-0.2,0.2-0.4,0.4-0.5,0.6c0,0.1,0.2,0.2,0.4,0.5c0.2-0.3,0.4-0.5,0.5-0.7
			C34,12.2,33.7,12,33.6,11.9z"/>
		<path id="XMLID_50_" class="st1" d="M27.6,11.5c-0.3,0-0.5,0.2-0.6,0.6c0,0.1,0.1,0.3,0.2,0.4c0.1,0,0.1,0,0.2,0
			c0.2-0.2,0.4-0.4,0.5-0.7C27.9,11.8,27.7,11.5,27.6,11.5z"/>
		<path id="XMLID_49_" class="st1" d="M22.9,11.2c0,0.1,0.2,0.3,0.4,0.4c0.2-0.2,0.4-0.3,0.5-0.5c0-0.1-0.2-0.3-0.4-0.5
			C23.1,10.9,22.9,11,22.9,11.2z"/>
		<path id="XMLID_48_" class="st1" d="M28.9,10.1c-0.2,0.1-0.4,0.3-0.4,0.5c0,0.1,0.2,0.4,0.3,0.4c0.2,0,0.4-0.2,0.5-0.3
			c0-0.1,0-0.1,0-0.2C29.2,10.2,29,10,28.9,10.1z"/>
		<path id="XMLID_47_" class="st1" d="M9,38.7c0,0.2,0.2,0.3,0.4,0.5c0.1-0.2,0.4-0.3,0.4-0.5c0-0.1-0.2-0.3-0.4-0.6
			C9.2,38.3,9,38.5,9,38.7z"/>
		<path id="XMLID_46_" class="st1" d="M2.3,40.6c-0.2,0.1-0.3,0.2-0.6,0.4c0.2,0.2,0.4,0.4,0.5,0.4c0.3,0,0.5-0.3,0.4-0.5
			C2.6,40.8,2.3,40.6,2.3,40.6z"/>
		<path id="XMLID_45_" class="st1" d="M10.4,35.8c-0.2,0.1-0.3,0.3-0.5,0.5c0,0,0.2,0.3,0.3,0.3c0.2-0.1,0.4-0.2,0.6-0.3
			c0-0.1,0-0.1,0-0.2C10.7,35.9,10.5,35.7,10.4,35.8z"/>
	</g>
</g>
</svg>
